<?xml version="1.0" standalone="no"?><!DOCTYPE svg PUBLIC "-//W3C//DTD SVG 1.1//EN" "http://www.w3.org/Graphics/SVG/1.1/DTD/svg11.dtd"><svg class="icon" width="200px" height="200.00px" viewBox="0 0 1024 1024" version="1.1" xmlns="http://www.w3.org/2000/svg"><path d="M166.4 699.733333L21.333333 546.133333c-17.066667-17.066667-17.066667-42.666667 0-64l145.066667-153.6c4.266667-4.266667 8.533333-12.8 8.533333-17.066666l64-204.8c8.533333-21.333333 29.866667-38.4 55.466667-29.866667l209.066667 46.933333h21.333333l209.066667-46.933333c21.333333-4.266667 46.933333 8.533333 55.466666 29.866667L853.333333 311.466667c0 8.533333 4.266667 12.8 8.533334 17.066666l145.066666 153.6c17.066667 17.066667 17.066667 42.666667 0 64l-145.066666 153.6c-4.266667 4.266667-8.533333 12.8-8.533334 17.066667l-64 204.8c-8.533333 21.333333-29.866667 38.4-55.466666 29.866667l-209.066667-46.933334h-21.333333l-209.066667 46.933334c-21.333333 4.266667-46.933333-8.533333-55.466667-29.866667l-64-204.8c0-8.533333 0-12.8-8.533333-17.066667z" fill="#D6564F" /><path d="M307.2 844.8l-204.8-64c-21.333333-8.533333-38.4-29.866667-29.866667-55.466667l46.933334-209.066666v-21.333334L72.533333 285.866667c-4.266667-21.333333 8.533333-46.933333 29.866667-55.466667l204.8-64c8.533333 0 12.8-4.266667 17.066667-8.533333L477.866667 12.8c17.066667-17.066667 42.666667-17.066667 64 0l153.6 145.066667c4.266667 4.266667 12.8 8.533333 17.066666 8.533333l204.8 64c21.333333 8.533333 38.4 29.866667 29.866667 55.466667l-46.933333 209.066666v21.333334l46.933333 209.066666c4.266667 21.333333-8.533333 46.933333-29.866667 55.466667l-204.8 64c-8.533333 0-12.8 4.266667-17.066666 8.533333l-153.6 145.066667c-17.066667 17.066667-42.666667 17.066667-64 0L324.266667 853.333333c-4.266667-4.266667-8.533333-4.266667-17.066667-8.533333z" fill="#FF635B" /><path d="M366.933333 439.466667c12.8 0 29.866667 4.266667 42.666667 8.533333 12.8 4.266667 25.6 12.8 34.133333 25.6 8.533333 12.8 17.066667 25.6 21.333334 42.666667 4.266667 12.8 4.266667 29.866667 4.266666 42.666666 0 17.066667-4.266667 29.866667-8.533333 46.933334-4.266667 17.066667-12.8 34.133333-25.6 46.933333-12.8 12.8-25.6 21.333333-42.666667 29.866667-17.066667 8.533333-38.4 8.533333-55.466666 8.533333s-34.133333-4.266667-46.933334-8.533333c-17.066667-8.533333-34.133333-17.066667-46.933333-34.133334-12.8-17.066667-25.6-34.133333-29.866667-55.466666-8.533333-25.6-8.533333-51.2-8.533333-76.8 0-25.6 4.266667-46.933333 8.533333-68.266667-4.266667-17.066667 0-29.866667 4.266667-42.666667 4.266667-12.8 12.8-21.333333 17.066667-34.133333 12.8-17.066667 34.133333-34.133333 55.466666-46.933333 8.533333 0 21.333333-4.266667 34.133334-8.533334 12.8-4.266667 25.6-4.266667 38.4-4.266666 25.6 0 51.2 4.266667 81.066666 8.533333v68.266667C418.133333 384 401.066667 384 379.733333 384c-8.533333 0-21.333333 0-29.866666 4.266667-8.533333 0-21.333333 8.533333-29.866667 12.8-8.533333 8.533333-12.8 17.066667-17.066667 25.6-4.266667 12.8-8.533333 25.6-8.533333 38.4 21.333333-17.066667 42.666667-25.6 72.533333-25.6z m-29.866666 183.466666c12.8 0 21.333333-4.266667 29.866666-17.066666 4.266667-8.533333 8.533333-12.8 8.533334-21.333334s0-12.8 4.266666-21.333333c0-8.533333 0-12.8-4.266666-21.333333 0-8.533333-4.266667-12.8-8.533334-21.333334-8.533333-12.8-17.066667-17.066667-29.866666-17.066666-17.066667 0-34.133333 8.533333-42.666667 21.333333v34.133333c0 8.533333 4.266667 17.066667 4.266667 25.6 4.266667 8.533333 4.266667 12.8 8.533333 21.333334 8.533333 8.533333 17.066667 17.066667 29.866667 17.066666z m260.266666 72.533334c4.266667-12.8 8.533333-21.333333 8.533334-34.133334 4.266667-17.066667 8.533333-38.4 8.533333-55.466666 4.266667-25.6 4.266667-51.2 4.266667-72.533334V358.4l200.533333-8.533333v59.733333l-136.533333 8.533333v34.133334h145.066666v55.466666h-38.4v187.733334h-68.266666v-187.733334H682.666667c0 38.4-4.266667 81.066667-8.533334 119.466667-4.266667 21.333333-8.533333 42.666667-12.8 68.266667H597.333333z m-102.4-294.4h29.866667V349.866667h68.266667v51.2h25.6v51.2h-25.6v55.466666l21.333333-4.266666v55.466666l-21.333333 4.266667v34.133333c0 17.066667 0 38.4-4.266667 55.466667l-12.8 38.4h-76.8c8.533333-12.8 17.066667-29.866667 21.333333-46.933333 4.266667-17.066667 4.266667-34.133333 4.266667-51.2v-21.333334l-29.866667 4.266667v-59.733333l29.866667-4.266667v-68.266667h-29.866667v-42.666666z" fill="#FFFFFF" /></svg>