<?xml version="1.0" standalone="no"?><!DOCTYPE svg PUBLIC "-//W3C//DTD SVG 1.1//EN" "http://www.w3.org/Graphics/SVG/1.1/DTD/svg11.dtd"><svg class="icon" width="200px" height="200.00px" viewBox="0 0 1024 1024" version="1.1" xmlns="http://www.w3.org/2000/svg"><path d="M512 512m-512 0a512 512 0 1 0 1024 0 512 512 0 1 0-1024 0Z" fill="#E4E4E4" /><path d="M512 512m-485.647059 0a485.647059 485.647059 0 1 0 971.294118 0 485.647059 485.647059 0 1 0-971.294118 0Z" fill="#FFFFFF" /><path d="M696.033882 520.071529L528.384 352.301176a20.585412 20.585412 0 0 0-14.863059-6.083764c-0.722824-0.060235-1.355294-0.406588-2.078117-0.406588-3.026824 0-5.842824 0.707765-8.432942 1.867294a20.600471 20.600471 0 0 0-7.213176 4.608L328.011294 519.936a20.645647 20.645647 0 0 0-0.015059 29.259294c4.035765 4.080941 9.336471 6.068706 14.667294 6.068706 5.300706 0 10.586353-2.032941 14.637177-6.008471l133.451294-133.391058v364.754823c0 11.474824 9.276235 20.705882 20.705882 20.705882s20.705882-9.231059 20.705883-20.705882V414.855529l134.550588 134.415059c4.050824 4.080941 9.381647 6.113882 14.697412 6.113883 5.330824 0 10.556235-2.017882 14.607059-6.02353a20.720941 20.720941 0 0 0 0.015058-29.289412z m43.730824-215.130353h-455.529412a20.720941 20.720941 0 0 1 0-41.411764h455.529412a20.705882 20.705882 0 1 1 0 41.411764z" fill="#999999" /></svg>