<?xml version="1.0" standalone="no"?><!DOCTYPE svg PUBLIC "-//W3C//DTD SVG 1.1//EN" "http://www.w3.org/Graphics/SVG/1.1/DTD/svg11.dtd"><svg class="icon" width="200px" height="200.00px" viewBox="0 0 1024 1024" version="1.1" xmlns="http://www.w3.org/2000/svg"><path d="M511.999488 13.302981c-276.473799 0-500.582973 224.128617-500.582972 500.581949 0 276.454356 224.108151 500.582973 500.582972 500.582973 276.455379 0 500.582973-224.127593 500.582973-500.582973 0-276.453333-224.127593-500.581949-500.582973-500.581949z" fill="#BE8C6B" /><path d="M726.799646 754.60748H297.198308c-36.375465 0-65.968457-30.259164-65.968458-67.454298v-2.001587l52.839439-267.558755c0.675382-17.524119 9.330506-34.288944 23.981181-46.287209 14.303774-11.714809 33.07428-18.166755 52.854788-18.166755h302.169018c19.788695 0 38.565341 6.450922 52.870138 18.164708 14.653745 11.998265 23.309892 28.763091 23.985274 46.289256l52.839439 267.558755v2.001587c0 37.195134-29.594015 67.454298-65.969481 67.454298z m-454.584336-65.719794c0.845251 13.81975 11.727089 24.788569 24.984021 24.788569h429.601338c13.255908 0 24.13877-10.968819 24.984021-24.788569l-52.743248-267.074731v-2.001587c0-13.95278-16.471137-25.740244-35.966143-25.740244H360.905258c-19.485797 0-35.9467 11.787464-35.9467 25.740244v2.001587l-52.743248 267.074731z" fill="#FFFFFF" /><path d="M544.458761 273.605471h-64.917522c-49.569976 0-89.753163 39.440267-89.753163 88.110757v88.091314h44.87607v-66.074881c1.951445-62.238506 50.17475-66.072835 87.34737-66.072834 37.170574 0 67.323315 29.585829 67.323315 66.072834v66.073858h44.87607v-88.091314c0.001023-48.669466-40.182164-88.109734-89.75214-88.109734z" fill="#FFFFFF" /><path d="M302.562479 449.722608h417.508929v40.046065h-417.508929z" fill="#FFFFFF" /></svg>