<?xml version="1.0" standalone="no"?><!DOCTYPE svg PUBLIC "-//W3C//DTD SVG 1.1//EN" "http://www.w3.org/Graphics/SVG/1.1/DTD/svg11.dtd"><svg class="icon" width="200px" height="199.80px" viewBox="0 0 1025 1024" version="1.1" xmlns="http://www.w3.org/2000/svg"><path fill="#707070" d="M491.999167 718.425397L976.006222 231.167549c10.47478-10.47478 27.812346-10.835979 38.648324 0l2.889595 2.889594c10.47478 10.47478 10.835979 27.812346 0 38.648324L533.898285 759.602116c-10.47478 10.47478-27.812346 10.835979-38.648324 0l-2.889595-2.889594c-10.835979-10.47478-10.835979-27.812346-0.361199-38.287125z"  /><path fill="#707070" d="M49.168832 234.418342l487.257848 483.645856c10.47478 10.47478 10.835979 27.812346 0 38.648324l-2.889594 2.889594c-10.47478 10.47478-27.812346 10.835979-38.648325 0L7.992112 275.956261c-10.47478-10.47478-10.835979-27.812346 0-38.648324l2.889595-2.889595c10.47478-10.47478 27.812346-10.47478 38.287125 0z"  /></svg>