<?xml version="1.0" standalone="no"?><!DOCTYPE svg PUBLIC "-//W3C//DTD SVG 1.1//EN" "http://www.w3.org/Graphics/SVG/1.1/DTD/svg11.dtd"><svg class="icon" width="200px" height="200.00px" viewBox="0 0 1024 1024" version="1.1" xmlns="http://www.w3.org/2000/svg"><path fill="#ffffff" d="M955.733333 195.047619c-17.066667-17.066667-41.447619-26.819048-65.828571-26.819048H309.638095c-19.504762 0-29.257143 7.314286-29.257143 24.380953s12.190476 24.380952 29.257143 24.380952h580.266667c24.380952-2.438095 36.571429 26.819048 36.571428 46.32381l-48.761904 265.752381c-4.87619 29.257143-19.504762 41.447619-46.32381 43.885714l-453.485714 31.695238c-17.066667 2.438095-29.257143 9.752381-26.819048 26.819048 2.438095 14.628571 9.752381 21.942857 41.447619 19.504762l443.733334-29.257143c48.761905-2.438095 82.895238-21.942857 90.209523-65.828572L975.238095 268.190476c4.87619-29.257143 0-51.2-19.504762-73.142857z"  /><path fill="#ffffff" d="M877.714286 743.619048H331.580952c-9.752381 0-34.133333-14.628571-39.009523-46.32381l-58.514286-365.714286-24.380953-180.419047C195.047619 104.838095 168.228571 82.895238 119.466667 80.457143H75.580952c-19.504762 0-29.257143 7.314286-29.257142 24.380952s14.628571 24.380952 31.695238 24.380953h48.761904c14.628571 0 29.257143 19.504762 31.695238 34.133333l87.771429 538.819048c2.438095 46.32381 41.447619 90.209524 90.209524 90.209523h543.695238c19.504762 0 26.819048-12.190476 26.819048-26.819047 0-21.942857-29.257143-21.942857-29.257143-21.942857zM326.704762 889.904762c0 29.257143 24.380952 53.638095 53.638095 53.638095s53.638095-24.380952 53.638095-53.638095c0-29.257143-24.380952-53.638095-53.638095-53.638095s-53.638095 24.380952-53.638095 53.638095c0 31.695238 0 0 0 0zM736.304762 889.904762c0 29.257143 24.380952 53.638095 53.638095 53.638095 29.257143 0 53.638095-24.380952 53.638095-53.638095 0-29.257143-24.380952-53.638095-53.638095-53.638095-29.257143 0-53.638095 24.380952-53.638095 53.638095 0 31.695238 0 0 0 0z"  /></svg>