<?xml version="1.0" standalone="no"?><!DOCTYPE svg PUBLIC "-//W3C//DTD SVG 1.1//EN" "http://www.w3.org/Graphics/SVG/1.1/DTD/svg11.dtd"><svg class="icon" width="200px" height="200.00px" viewBox="0 0 1024 1024" version="1.1" xmlns="http://www.w3.org/2000/svg"><path fill="#ea986c" d="M417.951 670.388h-57.059l15.268-380.292c0.431-2.25 0.327-4.465-0.342-6.724l-44.197-148.221c-5.022-16.784-14.934-19.25-20.386-19.25-5.498 0-15.483 2.563-20.603 19.666l-44.189 147.917a15.259 15.259 0 0 0-0.565 3.069c-0.089 0.758-0.118 1.271-0.089 2.036l15.342 381.799h-56.849c-5.943 0-10.713 6.258-10.713 13.768v27.221c0 7.518 4.77 13.722 10.713 13.722h69.612V869.37c0 6.544 4.978 11.723 12.058 11.723h49.561c7.073 0 14.05-5.179 14.05-11.723V725.097h68.388c5.943 0 10.771-6.205 10.771-13.722v-27.221c0.001-7.508-4.827-13.766-10.771-13.766z m-113.788-2.331H290.1l-15.09-377.396c0.209-0.883 0.313-1.426 0.357-2.333l28.795-96.217 0.001 475.946z m27.755 0h-12.622V193.07l27.762 94.367c-0.021 1.196-0.073 2.057 0.201 3.224l-15.341 377.396zM927.072 494.521c-9.176-54.545-24.392-92.315-25.029-93.884-3.142-7.659-9.665-13.135-16.909-13.135h-0.208c-7.295 0-13.781 5.23-16.818 12.987-1.241 2.734-17.096 35.906-60.81 35.906-45.772 0-70.133-44.667-71.537-47.303-3.389-6.738-9.464-10.899-16.138-10.899h-0.006c-6.688 0-12.764 4.219-16.146 10.966-1.411 2.66-25.734 47.266-71.479 47.266-43.713 0-59.59-32.868-60.838-35.609-3.039-7.749-9.524-12.504-16.819-12.593-7.348-0.126-13.938 5.037-17.101 12.771-0.648 1.567-15.871 39.063-25.046 93.609-12.273 72.896-7.793 142.122 12.94 200.196 30.208 84.62 93.58 146.894 188.354 185.087a16.3 16.3 0 0 0 6.137 1.203c2.075 0 4.146-0.415 6.138-1.219 94.77-38.2 158.148-100.495 188.363-185.115 20.737-58.075 25.218-127.345 12.952-200.234z m-47.731 183.258c-25.26 70.72-78.981 123.803-159.718 157.851-80.63-33.995-134.313-86.981-159.604-157.555-22.494-62.77-18.431-129.075-11.055-173.644a480.265 480.265 0 0 1 11.56-51.774c14.985 14.324 38.031 27.949 71.471 27.949 41.918 0 71.107-25.118 87.639-44.991 16.535 19.866 45.749 44.991 87.665 44.991 33.431 0 56.464-13.617 71.446-27.927 13.395 47.541 31.128 139.575 0.596 225.1z"  /><path fill="#ea986c" d="M754.676 492.277h-71.008v69.844h-78.002v68.683h78.002v137.368h71.008V630.804h80.326v-68.683h-80.326z"  /></svg>