<?xml version="1.0" standalone="no"?><!DOCTYPE svg PUBLIC "-//W3C//DTD SVG 1.1//EN" "http://www.w3.org/Graphics/SVG/1.1/DTD/svg11.dtd"><svg class="icon" width="200px" height="200.00px" viewBox="0 0 1024 1024" version="1.1" xmlns="http://www.w3.org/2000/svg"><path fill="#2c2c2c" d="M963.328 1002.818954a37.628062 37.628062 0 0 1-26.596431-11.0336L30.814523 85.868308c-14.686523-14.686523-14.686523-38.5024 0-53.190893 14.686523-14.686523 38.5024-14.686523 53.190892 0l905.991877 905.999754a37.696985 37.696985 0 0 1 7.936 40.912739 37.691077 37.691077 0 0 1-34.605292 23.229046"  /><path fill="#2c2c2c" d="M57.407015 1002.818954a37.5552 37.5552 0 0 1-34.857353-23.181785 37.537477 37.537477 0 0 1 8.264861-41.034831L936.816246 32.679385c14.865723-13.520738 37.738338-12.973292 51.936492 1.248492 14.202092 14.219815 14.716062 37.0944 1.169724 51.9424L84.005415 991.787323a37.578831 37.578831 0 0 1-26.5984 11.031631"  /></svg>