<?xml version="1.0" standalone="no"?><!DOCTYPE svg PUBLIC "-//W3C//DTD SVG 1.1//EN" "http://www.w3.org/Graphics/SVG/1.1/DTD/svg11.dtd"><svg class="icon" width="200px" height="200.00px" viewBox="0 0 1024 1024" version="1.1" xmlns="http://www.w3.org/2000/svg"><path fill="#ea986c" d="M501.328842 1013.221053C156.968421 1013.221053 0.107789 753.394526 0.107789 512 0.107789 262.521263 95.717053 10.778947 309.355789 10.778947c142.901895 0 209.488842 52.682105 279.956211 108.463158 35.031579 27.674947 71.221895 56.32 120.724211 82.863158 34.519579 18.512842 64.161684 32.552421 90.273684 44.921263 90.597053 42.954105 145.300211 68.904421 199.329684 189.116632 44.193684 98.169263 27.971368 218.677895-44.436211 330.671158-98.250105 152.010105-272.168421 246.406737-453.874526 246.406737zM309.355789 75.883789C116.628211 75.883789 65.185684 350.019368 65.185684 512c0 210.054737 136.488421 436.143158 436.143158 436.143158 191.056842 0 331.506526-111.912421 399.225263-216.656842 59.311158-91.701895 74.159158-192.134737 39.774316-268.611369-44.247579-98.357895-80.437895-115.523368-167.882105-156.995368-26.785684-12.719158-57.155368-27.109053-93.103158-46.376421-54.649263-29.264842-94.881684-61.143579-130.371369-89.222737-69.308632-54.784-119.349895-94.396632-239.616-94.396632z"  /><path fill="#ea986c" d="M491.600842 741.133474c-117.733053 0-213.504-95.797895-213.504-213.504 0-117.733053 95.770947-213.504 213.504-213.504s213.504 95.770947 213.504 213.504c0 117.706105-95.797895 213.504-213.504 213.504z m0-374.945685c-89.034105 0-161.441684 72.434526-161.441684 161.441685s72.434526 161.441684 161.441684 161.441684c89.007158 0 161.441684-72.434526 161.441684-161.441684s-72.434526-161.441684-161.441684-161.441685z"  /></svg>