<?xml version="1.0" standalone="no"?><!DOCTYPE svg PUBLIC "-//W3C//DTD SVG 1.1//EN" "http://www.w3.org/Graphics/SVG/1.1/DTD/svg11.dtd"><svg class="icon" width="200px" height="100.00px" viewBox="0 0 2048 1024" version="1.1" xmlns="http://www.w3.org/2000/svg"><path fill="#ea986c" d="M1291.772662 312.716558h133.019752v256.52684h-133.019752z"  /><path fill="#ea986c" d="M0 0v1024l1024.137865-179.558941 1023.862135 179.558941V0H0z m711.598561 595.674033c0 26.844229-12.860808 40.276191-38.562729 40.276191h-40.295886l-6.932626-29.896948c14.436405 1.457427 26.5685 2.146751 36.396284 2.146751 12.407824 0 18.631431-6.775066 18.631431-20.344893V484.29904a1217.030293 1217.030293 0 0 1-61.093762 19.49801l-7.365915-31.196815a697.73331 697.73331 0 0 0 68.459677-19.064721v-100.52307h-61.527051v-29.896948h61.527051V243.823592h30.763526v79.291904h53.727848v29.896948h-53.727848v89.257554a917.076068 917.076068 0 0 0 55.461005-25.130768v31.630104c-12.132095 5.790318-30.625661 13.865251-55.461005 24.244495v122.660204z m291.603562-182.001115h-65.859942v229.662916h-31.630104V413.672918h-82.324929v19.06472c-2.599735 86.086666-23.693036 154.979632-63.260208 206.678899L738.029196 616.452215c34.072279-45.042371 52.427981-106.293693 55.027716-183.714577V278.486719c67.868828-1.733156 129.120151-12.978978 183.714576-33.796549l15.165119 28.183486c-49.985806 17.902718-106.155829 28.439521-168.549459 31.610409v79.291905h179.814975v29.896948z m232.676245-60.660474h-51.128113v88.824265a850.310157 850.310157 0 0 0 51.128113-24.697479v29.916643a770.860693 770.860693 0 0 1-51.128113 23.8309v125.220549c0 26.588195-12.998673 39.842902-38.996019 39.842902h-43.762199l-6.499336-29.463659c15.302983 1.457427 28.439521 2.18614 39.429308 2.186141 12.998673 0 19.478314-6.814456 19.478314-20.384283v-105.269555a721.071837 721.071837 0 0 1-61.093763 20.797877l-7.346219-29.896948a835.263209 835.263209 0 0 0 68.439982-20.364588v-100.52307h-61.960341v-29.896948h61.960341v-77.992037h30.349932v77.992037h51.128113v29.877253z m218.810994 276.005155h-29.896948v-30.310542h-133.019752v30.310542h-29.896948V283.252899h192.793953v345.7647z"  /></svg>