<?xml version="1.0" standalone="no"?><!DOCTYPE svg PUBLIC "-//W3C//DTD SVG 1.1//EN" "http://www.w3.org/Graphics/SVG/1.1/DTD/svg11.dtd"><svg class="icon" width="200px" height="200.00px" viewBox="0 0 1024 1024" version="1.1" xmlns="http://www.w3.org/2000/svg"><path d="M1012.437544 352.654905l-10.839802-231.249118c-2.890614-59.257586-50.585745-107.675371-109.843331-109.843331L660.505293 0.722653c-32.519407-1.445307-64.316161 10.839802-86.718419 33.964715L33.964714 573.786874c-44.804517 44.804517-44.804517 118.515173 0 163.319689l242.08892 242.08892c44.804517 44.804517 118.515173 44.804517 163.31969 0l539.822159-539.822159c22.402258-23.124912 34.687368-54.199012 33.242061-86.718419z" fill="#E12B77" /><path d="M445.154552 740.719831c-18.788991 18.788991-42.636556 33.242061-57.81228 37.577981l-23.847565-39.023288c15.175723-5.058574 36.132675-15.175723 52.753705-31.796754 17.343684-17.343684 19.511644-33.964714 8.671842-44.804517-10.117149-10.117149-24.570219-8.671842-52.031051 4.335921-37.577982 18.066337-70.820042 20.956951-95.390262-3.613267-28.90614-28.90614-26.738179-74.43331 13.007763-114.179252 18.788991-18.788991 36.855328-28.90614 51.308398-33.964714l22.402259 39.023288c-10.117149 3.613267-26.738179 10.839802-42.636556 26.73818-16.62103 16.62103-16.62103 31.796754-7.949189 40.468595 10.839802 10.839802 24.570219 5.781228 54.921666-7.226535 40.468596-18.788991 70.097389-17.343684 93.2223 6.503882 26.738179 28.183486 28.90614 73.710656-16.62103 119.96048zM622.927311 557.165843L567.282992 527.53705l-47.69513 47.695131 30.351446 54.921665-39.023288 39.023289-116.347213-218.241355 49.863091-49.863091 219.686662 115.624559zM674.235709 506.580099L506.580099 338.924488l37.577981-37.577981 135.858857 135.136203 66.484122-66.484121 31.796753 31.796753zM788.414961 391.678193L620.759351 224.745236l103.339449-104.062103 31.0741 31.074101-65.038814 65.761467 34.687368 34.687368 61.425547-61.425547 31.0741 30.351447-61.425547 62.1482 39.745942 39.745943 68.652082-69.374736 31.0741 31.0741z" fill="#F5DC33" /><path d="M496.46295 541.267466l36.855328-36.855328-46.249824-25.292872c-13.007763-7.226535-28.183486-16.62103-40.468595-23.847565l-0.722654 0.722653c7.226535 12.285109 17.343684 27.460833 24.570219 39.745942l26.015526 45.52717z m0 0" fill="#E12B77" /></svg>