<?xml version="1.0" standalone="no"?><!DOCTYPE svg PUBLIC "-//W3C//DTD SVG 1.1//EN" "http://www.w3.org/Graphics/SVG/1.1/DTD/svg11.dtd"><svg class="icon" width="200px" height="200.00px" viewBox="0 0 1024 1024" version="1.1" xmlns="http://www.w3.org/2000/svg"><path d="M918.9 454H846c-6.2-81-42.1-159.2-102.1-217.8-45.7-44.6-101.9-74.5-162.9-88.3-4.9-37.6-37.1-66.4-76-66.4s-71.1 29.3-76 66.8c-61 13.8-117.2 43.2-162.9 87.8C206 294.8 170.2 373 164 454H91c-19.8 0-30 18.2-30 38v38.8c0 19.8 10.2 36.2 30 36.2h204.9c10.9 20 56.2 82.7 71.6 101.5 24.9 30.5 94 45.4 127.8 51l-25.5 225.8c-1.1 10.1 6.1 19.2 16.2 20.3 0.7 0.1 1.4 0.1 2.1 0.1 9.2 0 17.2-6.9 18.2-16.3l27.5-243.5c1.1-10-6-19.1-16-20.3-41-5-105.9-20.8-121.9-40.3-14.2-17.4-50-68.2-55.2-78.2H382c10.1 10 33.3 29.3 60.3 49.6 19.3 14.5 100 12.6 142.3 0.4 4.2-1.2 7.8-3.7 10.2-7.3l28.9-42.8h36l-41.9 145.1c-0.5 1.8-0.8 3.6-0.7 5.4l4.5 230.4c0.2 10 8.4 18.1 18.4 18.1h0.4c10.1 0 18.2-8.7 18-18.9L654 719.7 697.9 567h220.9c19.8 0 42.1-16.4 42.1-36.2V492c0.1-19.8-22.2-38-42-38zM568.2 583.5c-38.2 9.1-93.4 7.4-104.7 3.2-8.9-6.7-17.4-9.6-25-19.6h140.9l-11.2 16.4z" fill="#E66978" /><path d="M200.9 455.2H809c-13.5-157.6-143.6-278.4-304.1-278.4-160.4 0-290.6 120.8-304 278.4z m223.2-227.7c10-1.8 19.6 4.8 21.4 14.8 1.8 10-4.8 19.5-14.7 21.4-4.5 0.9-110.8 22.3-144.9 148-2.2 8.2-9.6 13.6-17.7 13.6-1.6 0-3.2-0.2-4.8-0.6-9.8-2.7-15.6-12.8-12.9-22.6 40.2-148.8 168.2-173.6 173.6-174.6z" fill="#FFAEBF" /><path d="M263.2 424.6c1.6 0.4 3.2 0.6 4.8 0.6 8.1 0 15.5-5.4 17.7-13.6 34.1-125.7 140.4-147.2 144.9-148 10-1.8 16.6-11.4 14.7-21.4-1.8-10-11.4-16.6-21.4-14.8-5.4 1-133.4 25.8-173.8 174.5-2.4 10 3.3 20.1 13.1 22.7z" fill="#E66978" /><path d="M504.9 118.5c16.1 0 30 9.6 36.3 23.4-12-1.3-24.1-1.9-36.3-1.9-12.2 0-24.3 0.7-36.3 1.9 6.4-13.8 20.2-23.4 36.3-23.4zM91.8 492.8h826.3V530H91.8z" fill="#FFAEBF" /></svg>