<?xml version="1.0" standalone="no"?><!DOCTYPE svg PUBLIC "-//W3C//DTD SVG 1.1//EN" "http://www.w3.org/Graphics/SVG/1.1/DTD/svg11.dtd"><svg class="icon" width="200px" height="200.00px" viewBox="0 0 1024 1024" version="1.1" xmlns="http://www.w3.org/2000/svg"><path d="M486.316066 0h50.192786l11.079345 63.118689c131.777049-0.503607 263.554098 0.167869 395.499016-0.503607-3.021639 6.379016-8.72918 19.304918-11.75082 25.683934-17.290492 34.413115-35.588197 68.154754-53.550163 102.232132 4.700328 9.232787 14.268852 27.698361 19.137049 36.931147 15.276066 30.048525 31.391475 59.92918 42.974426 91.656394-131.944918 1.846557-264.057705 0.335738-396.170492 1.175081v95.013771c110.961311 0.167869 222.090492 0 333.219672 0.167869 33.909508 42.806557 68.154754 85.277377 101.392787 128.587541-33.741639 42.638689-67.483279 85.445246-101.057049 128.251803-111.297049 0.671475-222.42623 0-333.55541 0.335738v46.331803c-0.167869 101.560656 0 203.28918-0.167869 305.017705h-64.797377c-2.182295-117.172459 0.671475-234.344918-3.525246-351.517377-81.752131 0.167869-163.504262 0-245.424262-0.167869-29.544918 0-59.089836 0-88.634754 0.167869 22.158689-42.974426 44.485246-85.948852 66.643934-128.923279-22.494426-42.806557-44.820984-85.613115-67.147541-128.587541 112.472131 4.36459 224.944262 2.350164 337.416394 2.853771-0.503607-32.566557-2.014426-65.300984-3.357377-97.867541-115.325902 0.503607-230.651803-0.839344-345.809836 1.175082-37.770492-45.660328-82.255738-85.277377-120.529836-130.434099v-0.167868c44.653115-42.47082 89.138361-85.277377 133.959344-127.748197 109.282623 0.167869 218.565246-0.335738 327.847869 0.503606 5.036066-21.151475 10.407869-42.302951 16.11541-63.286557M39.113443 199.596066l22.494426 7.050491c25.516066 28.201967 53.046557 54.557377 80.912787 80.744918 255.160656-0.167869 510.48918 0.167869 765.817705-0.167868-21.822951-31.391475-43.645902-62.782951-64.797377-94.510164 14.268852-23.837377 28.705574-47.506885 42.806557-71.344263l11.918689 0.839345-2.182296-25.683935c-250.963934 0.167869-502.095738 0.167869-753.059672 0-35.756066 33.238033-71.176393 66.811803-103.910819 103.071476m137.820327 248.445901c11.918689 17.290492 22.998033 35.08459 34.916722 52.542951 7.889836 10.575738 23.837377 31.895082 31.895082 42.638689-22.494426 32.062951-44.820984 64.461639-67.31541 96.692459 31.895082 0 63.622295-0.167869 95.517377-0.167869 67.651148 0.167869 135.470164 0.167869 203.121311 0 0.167869-55.56459 0.167869-111.12918 0-166.693771l0.839345-24.676721c-99.54623-0.503607-199.260328-0.167869-298.974427-0.335738m366.457705 0.167869l0.335738 24.508853c-0.167869 55.732459-0.167869 111.297049 0 167.029508 111.12918-0.167869 222.090492 0.839344 333.051803-0.671476 21.822951-31.727213 43.478033-63.454426 65.300984-95.349508-16.283279-24.005246-32.902295-47.842623-48.514098-72.183606h-0.167869c-14.60459-31.895082-52.039344-20.815738-79.06623-24.005246-90.313443 0.671475-180.626885 0.503607-270.940328 0.671475z" fill="#EA851E" /><path d="M877.78623 190.531148c17.961967-34.077377 36.259672-67.819016 53.550163-102.232132 3.021639 11.75082 8.72918 35.588197 11.75082 47.506886-14.940328 30.72-30.72 61.104262-46.163934 91.656393-4.868197-9.232787-14.436721-27.698361-19.137049-36.931147z" fill="#F9DFC5" /><path d="M164.343607 121.872787c70.504918-14.100984 143.024262-4.700328 214.368524-6.379017 169.211803 2.685902 338.759344-6.379016 507.63541 5.87541-14.100984 23.837377-28.537705 47.506885-42.806557 71.344263 21.151475 31.727213 42.974426 63.118689 64.797377 94.510164-255.328525 0.335738-510.657049 0-765.817705 0.167868-27.86623-26.187541-55.396721-52.542951-80.912787-80.744918 34.916721-27.362623 64.461639-61.775738 102.735738-84.77377zM128.923279 321.133115c115.158033-2.014426 230.483934-0.671475 345.809836-1.175082 1.342951 32.566557 2.85377 65.300984 3.357377 97.867541-112.472131-0.503607-224.944262 1.51082-337.416394-2.853771 108.443279-14.100984 219.572459 6.379016 326.672787-15.611803-2.014426-6.043279-6.379016-18.129836-8.561311-24.340984-97.531803-14.940328-198.588852-0.167869-297.463607-6.546885-10.911475-15.779672-21.151475-31.895082-32.398688-47.339016zM543.727213 320.29377c132.112787-0.839344 264.225574 0.671475 396.170492-1.175081 3.693115 16.619016 6.882623 33.238033 9.904262 49.857049-135.470164 1.175082-270.772459 0-406.074754 0.335737v-49.017705zM211.850492 500.584918c17.290492-17.458361 39.784918-29.041311 64.965246-27.362623 66.140328-2.685902 132.280656 0.503607 198.253114-0.167869 0.167869 55.56459 0.167869 111.12918 0 166.693771-67.651148 0.167869-135.470164 0.167869-203.121311 0-0.167869-34.413115-3.357377-70.16918-28.201967-96.52459-8.057705-10.743607-24.005246-32.062951-31.895082-42.638689zM543.727213 472.718689c116.500984 0.335738 233.169836 1.846557 349.67082-1.175082h0.167869c15.611803 24.340984 32.23082 48.178361 48.514098 72.183606-21.822951 31.895082-43.478033 63.622295-65.300984 95.349508-110.961311 1.51082-221.922623 0.503607-333.051803 0.671476-0.167869-55.732459-0.167869-111.297049 0-167.029508z" fill="#F9DFC5" /><path d="M877.282623 672.314754c33.57377-42.806557 67.31541-85.613115 101.057049-128.251803 12.758033 16.786885 25.180328 33.909508 37.266885 51.367869v2.182295c-32.062951 40.288525-58.754098 90.817049-103.910819 116.668852-122.040656 12.086557-245.424262 0.335738-367.968525 4.700328v-46.331803c111.12918-0.335738 222.258361 0.335738 333.55541-0.335738zM229.812459 672.314754c81.92 0.167869 163.672131 0.335738 245.424262 0.167869 4.196721 117.172459 1.342951 234.344918 3.525246 351.517377h-15.947541c7.38623-101.224918 7.218361-202.785574 3.693115-304.178361-78.562623-1.342951-157.125246-1.51082-235.687869-0.839344-0.335738-11.582951-0.671475-35.08459-1.007213-46.667541z" fill="#F9DFC5" /></svg>