<?xml version="1.0" standalone="no"?><!DOCTYPE svg PUBLIC "-//W3C//DTD SVG 1.1//EN" "http://www.w3.org/Graphics/SVG/1.1/DTD/svg11.dtd"><svg class="icon" width="200px" height="200.00px" viewBox="0 0 1024 1024" version="1.1" xmlns="http://www.w3.org/2000/svg"><path fill="#515151" d="M857.6 128l-230.4 153.6h-332.8c-112.64 0-204.8 66.56-204.8 179.2 0 94.72 64 161.28 153.6 179.2v204.8c0 28.16 23.04 51.2 51.2 51.2h76.8c28.16 0 51.2-23.04 51.2-51.2v-204.8h204.8l230.4 153.6c28.16 0 51.2-23.04 51.2-51.2V179.2c0-28.16-23.04-51.2-51.2-51.2z m-486.4 691.2c0 15.36-10.24 25.6-25.6 25.6h-25.6c-15.36 0-25.6-10.24-25.6-25.6v-179.2h76.8v179.2z m128-230.4h-204.8c-51.2 0-153.6-15.36-153.6-128s99.84-130.56 153.6-128h204.8v256z m128 0h-76.8V332.8h76.8v256z m230.4 153.6l-179.2-128V307.2l179.2-128v563.2z" /></svg>