<?xml version="1.0" standalone="no"?><!DOCTYPE svg PUBLIC "-//W3C//DTD SVG 1.1//EN" "http://www.w3.org/Graphics/SVG/1.1/DTD/svg11.dtd"><svg class="icon" width="200px" height="200.00px" viewBox="0 0 1024 1024" version="1.1" xmlns="http://www.w3.org/2000/svg"><path fill="#ea986c" d="M511.890286 621.348571a219.062857 219.062857 0 0 1-218.770286-218.88c0-120.649143 98.230857-218.916571 218.770286-218.916571 120.576 0 218.770286 98.267429 218.770285 218.916571a219.062857 219.062857 0 0 1-218.770285 218.88z m0-364.836571a146.102857 146.102857 0 0 0-145.846857 145.92c0 80.457143 65.462857 145.92 145.846857 145.92a146.102857 146.102857 0 0 0 145.846857-145.92 145.993143 145.993143 0 0 0-145.846857-145.92z"  /><path fill="#ea986c" d="M511.890286 1022.902857a36.425143 36.425143 0 0 1-25.088-10.020571 36.571429 36.571429 0 0 1-1.170286-51.602286c98.596571-103.387429 354.633143-405.430857 354.633143-558.628571 0-181.028571-147.236571-328.374857-328.155429-328.374858-180.955429 0-328.155429 147.309714-328.155428 328.374858 0 86.308571 82.724571 234.971429 232.667428 418.962285 12.763429 15.725714 10.386286 38.656-5.12 51.382857a36.571429 36.571429 0 0 1-51.309714-5.083428C194.706286 664.905143 110.811429 508.562286 110.811429 402.468571 110.811429 181.211429 290.779429 1.097143 511.890286 1.097143c221.147429 0 401.298286 180.077714 401.298285 401.334857 0 213.577143-359.533714 592.932571-374.857142 609.024a36.681143 36.681143 0 0 1-26.441143 11.373714z"  /></svg>