<?xml version="1.0" standalone="no"?><!DOCTYPE svg PUBLIC "-//W3C//DTD SVG 1.1//EN" "http://www.w3.org/Graphics/SVG/1.1/DTD/svg11.dtd"><svg class="icon" width="200px" height="200.00px" viewBox="0 0 1024 1024" version="1.1" xmlns="http://www.w3.org/2000/svg"><path fill="#ffffff" d="M512 0a512 512 0 1 0 512 512A512 512 0 0 0 512 0z m318.634667 435.029333a51.2 51.2 0 0 1-100.864 0v-79.872L631.466667 453.461333a252.245333 252.245333 0 1 1-71.338667-71.338666l98.304-98.304h-80.042667a51.2 51.2 0 1 1 0-100.864h201.728a51.2 51.2 0 0 1 51.2 51.2v200.874666z"  /><path fill="#ffffff" d="M314.026667 485.546667a151.210667 151.210667 0 1 0 214.016 0 151.210667 151.210667 0 0 0-214.016 0z"  /></svg>