<?xml version="1.0" standalone="no"?><!DOCTYPE svg PUBLIC "-//W3C//DTD SVG 1.1//EN" "http://www.w3.org/Graphics/SVG/1.1/DTD/svg11.dtd"><svg class="icon" width="200px" height="154.10px" viewBox="0 0 1329 1024" version="1.1" xmlns="http://www.w3.org/2000/svg"><path d="M1092.741842 0.152021H236.093359c-7.429496 0-14.283483 2.493149-20.386051 6.315398l21.602221 258.950841L430.786986 350.597943l195.909796-99.780239L898.050387 350.597943l194.691455-91.260533 20.386051-252.86782c-6.100396-3.824421-12.956555-6.317569-20.386051-6.317569z" fill="#FEA832" /><path d="M898.050387 350.597943l194.691455-91.260533 20.386051-252.86782c-6.100396-3.820077-12.956555-6.317569-20.386051-6.317569H664.4176v264.538709L898.050387 350.597943z" fill="#FE9923" /><path d="M1324.869618 329.951284l-199.121789-311.508934c-3.175073-5.07751-7.700963-8.8889-12.619936-11.97276L898.050387 350.597943 664.4176 0.152021 430.786986 350.597943 215.70948 6.467419c-4.918974 3.08386-9.444864 6.897422-12.619936 11.97276L4.903771 329.946941c-3.854825 6.150346-4.936347 13.436508-4.75175 20.64883l192.141842 116.815308h892.340902l244.332911-116.815308c0.078182-7.466416-0.6146-15.091368-4.098058-20.644487z" fill="#FFD400" /><path d="M1084.626078 467.413251L1328.961161 350.597943c0.084698-7.466416-0.608085-15.089196-4.093715-20.646659l-199.121789-311.508934c-3.175073-5.07751-7.700963-8.8889-12.619936-11.97276L898.050387 350.597943 664.4176 0.152021v467.26123h420.208478z" fill="#FDBF00" /><path d="M898.050387 350.597943H430.786986l-46.240524 262.833899L664.4176 1015.148019l261.617729-348.17429z" fill="#FEA832" /><path d="M898.050387 350.597943H664.4176v664.550076l261.617729-348.17429z" fill="#FE9923" /><path d="M0.147678 350.597943c0.273638 10.708812 3.935179 21.23737 10.226687 27.528879l626.510014 625.613088A38.813199 38.813199 0 0 0 664.413257 1015.148019L430.784814 350.597943H0.147678z" fill="#FE8821" /><path d="M898.050387 350.597943L664.4176 1015.148019c9.961736 0 19.925644-3.802703 27.528879-11.408109l627.443858-625.613088c6.949543-6.947372 9.451379-17.241383 9.568652-27.528879H898.050387z" fill="#E5741A" /></svg>