<?xml version="1.0" standalone="no"?><!DOCTYPE svg PUBLIC "-//W3C//DTD SVG 1.1//EN" "http://www.w3.org/Graphics/SVG/1.1/DTD/svg11.dtd"><svg class="icon" width="200px" height="200.00px" viewBox="0 0 1024 1024" version="1.1" xmlns="http://www.w3.org/2000/svg"><path fill="#ffffff" d="M847.957333 64H176a89.834667 89.834667 0 0 0-89.578667 89.621333v716.757334A89.813333 89.813333 0 0 0 176 960h671.957333a89.813333 89.813333 0 0 0 89.621334-89.621333V153.621333A89.834667 89.834667 0 0 0 847.957333 64zM278.698667 870.378667H220.8c-26.88 0-44.8-17.877333-44.8-44.757334v-627.2c0-26.901333 17.92-44.8 44.8-44.8h57.898667v716.757334z m569.258666-44.757334c0 26.88-17.877333 44.757333-44.757333 44.757334H353.216V153.621333H803.2c26.88 0 44.757333 17.898667 44.757333 44.8v627.2z"  /><path fill="#ffffff" d="M713.578667 243.178667H579.2c-26.88 0-44.8 17.92-44.8 44.8 0 26.901333 17.92 44.842667 44.8 44.842666h134.378667c26.88 0 44.8-17.941333 44.8-44.842666 0-26.88-17.92-44.8-44.8-44.8zM713.578667 422.421333H579.2c-26.88 0-44.8 17.898667-44.8 44.778667s17.941333 44.8 44.8 44.8h134.378667c26.88 0 44.8-17.941333 44.8-44.821333s-17.92-44.757333-44.8-44.757334z"  /></svg>