<?xml version="1.0" standalone="no"?><!DOCTYPE svg PUBLIC "-//W3C//DTD SVG 1.1//EN" "http://www.w3.org/Graphics/SVG/1.1/DTD/svg11.dtd"><svg class="icon" width="200px" height="200.00px" viewBox="0 0 1024 1024" version="1.1" xmlns="http://www.w3.org/2000/svg"><path fill="#ffffff" d="M381.44813 288.567231h259.735579v62.094221h-259.735579z"  /><path fill="#ffffff" d="M885.312846 288.567231h-101.19782v62.094221h49.352011c31.683607 0 57.369615 24.258497 57.369616 54.183039v433.46739c0 29.924543-25.687032 54.182017-57.369616 54.182016H189.164802c-31.68463 0-57.370639-24.257473-57.370638-54.182016V404.844491c0-29.925566 25.686009-54.18304 57.370638-54.183039h49.352012v-62.094221h-101.19782c-36.782741 0-66.601884 29.819143-66.601884 66.601884v532.819165c0 36.781718 29.819143 66.601884 66.601884 66.601884h747.994875c36.783765 0 66.602907-29.820166 66.602907-66.601884V355.169115c-0.001023-36.782741-29.819143-66.601884-66.60393-66.601884z"  /><path fill="#ffffff" d="M320.218604 555.823088c29.427216 0 53.281507-23.854291 53.281507-53.280484 0-19.788695-10.794857-37.043684-26.809599-46.232974V295.498084c0-93.623307 72.224951-169.520905 161.318082-169.520905h7.981789c89.094154 0 161.320129 75.897597 161.320128 169.520905v160.043043c-16.767895 8.975419-28.177759 26.653033-28.177759 47.001477 0 29.427216 23.855314 53.280484 53.281507 53.280484 29.426193 0 53.281507-23.854291 53.281507-53.280484 0-17.21815-8.17417-32.518624-20.84577-42.259476V286.879799c0-120.106472-97.363492-217.470987-217.470987-217.470986h-10.759041c-120.106472 0-217.470987 97.364515-217.470987 217.470986v172.390256c-13.447267 9.67229-22.211884 25.443485-22.211884 43.272549 0 29.427216 23.854291 53.280484 53.281507 53.280484z"  /></svg>