<?xml version="1.0" standalone="no"?><!DOCTYPE svg PUBLIC "-//W3C//DTD SVG 1.1//EN" "http://www.w3.org/Graphics/SVG/1.1/DTD/svg11.dtd"><svg class="icon" width="200px" height="200.00px" viewBox="0 0 1024 1024" version="1.1" xmlns="http://www.w3.org/2000/svg"><path fill="#ffffff" d="M230.4 563.2C103.2 563.2 0 666.4 0 793.6S103.2 1024 230.4 1024s230.4-103.2 230.4-230.4-103.2-230.4-230.4-230.4z m0 409.6c-98.8 0-179.2-80.4-179.2-179.2 0-98.8 80.4-179.2 179.2-179.2 98.8 0 179.2 80.4 179.2 179.2 0 98.8-80.4 179.2-179.2 179.2zM793.6 563.2c-127.2 0-230.4 103.2-230.4 230.4S666.4 1024 793.6 1024 1024 920.8 1024 793.6 920.8 563.2 793.6 563.2z m0 409.6c-98.8 0-179.2-80.4-179.2-179.2 0-98.8 80.4-179.2 179.2-179.2 98.8 0 179.2 80.4 179.2 179.2 0 98.8-80.4 179.2-179.2 179.2z"  /><path fill="#ffffff" d="M365.6 511.6c52.4-13.3 102.6-33.9 149.2-61.5l71.1 79H768c14.1 0 25.6-11.5 25.6-25.6s-11.5-25.6-25.6-25.6H608.7l-50.6-56.2c10.8-7.8 21.4-16 31.7-24.6 34.2 29.1 78.5 46.6 127 46.6 108.4 0 196.3-87.9 196.3-196.3S825.2 51.2 716.8 51.2s-196.3 87.9-196.3 196.3c0 41.5 12.9 80 34.9 111.7-92.4 76.6-208.5 118.7-329.3 118.7-0.3 0-0.6 0.1-0.9 0.1-1.1 0-2.3-0.1-3.4-0.1-14.1 0-25.6 11.5-25.6 25.6s11.5 25.6 25.6 25.6c150.6 0 273.1 122.5 273.1 273.1 0 14.1 11.5 25.6 25.6 25.6 14.1 0 25.6-11.5 25.6-25.6 0-127.3-73.6-237.5-180.5-290.6z m351.2-409.2c80 0 145.1 65.1 145.1 145.1s-65.1 145.1-145.1 145.1-145.1-65.1-145.1-145.1 65.1-145.1 145.1-145.1z"  /></svg>