<?xml version="1.0" standalone="no"?><!DOCTYPE svg PUBLIC "-//W3C//DTD SVG 1.1//EN" "http://www.w3.org/Graphics/SVG/1.1/DTD/svg11.dtd"><svg class="icon" width="200px" height="200.00px" viewBox="0 0 1024 1024" version="1.1" xmlns="http://www.w3.org/2000/svg"><path fill="#ffffff" d="M621.24800001 877.248l320-320c24.992051-24.992051 24.992051-65.504051 0-90.496l-320-320c-24.992051-24.992051-65.504051-24.992051-90.496 0-24.992051 24.992051-24.992051 65.504051 0 90.496l210.75199999 210.75199999-613.504 1e-8c-35.36005101 0-64 28.640051-64 64 0 35.36005101 28.640051 64 64 64l613.504 1e-8-210.75199999 210.75199999c-12.48 12.512051-18.752 28.864-18.75200001 45.248s6.240051 32.768 18.75200001 45.248c24.992051 24.992051 65.504051 24.992051 90.496 0z" /></svg>