<?xml version="1.0" standalone="no"?><!DOCTYPE svg PUBLIC "-//W3C//DTD SVG 1.1//EN" "http://www.w3.org/Graphics/SVG/1.1/DTD/svg11.dtd"><svg class="icon" width="200px" height="200.00px" viewBox="0 0 1024 1024" version="1.1" xmlns="http://www.w3.org/2000/svg"><path fill="#ffffff" d="M46.728533 856.2688l239.0016-138.077867 83.6352-129.006933c7.441067 20.394667 22.2208 37.4784 42.1888 47.2064l36.7104 17.8944-83.925333 129.4336a50.9696 50.9696 0 0 1-17.194667 16.366933l-249.591466 144.1536a50.781867 50.781867 0 0 1-69.4016-18.5856 50.798933 50.798933 0 0 1 18.577066-69.384533zM785.365333 309.998933c-65.4336 0-118.5024-53.085867-118.5024-118.570666 0-65.399467 53.0688-118.485333 118.5024-118.485334 65.467733 0 118.545067 53.085867 118.545067 118.485334 0 65.4848-53.077333 118.570667-118.545067 118.570666zM728.6784 424.541867c19.1232-16.989867 29.474133-42.257067 28.125867-67.746134l54.9632 36.906667 102.5792-112.4096a50.756267 50.756267 0 0 1 71.773866-3.268267 50.798933 50.798933 0 0 1 3.268267 71.7568l-132.087467 144.7424a50.730667 50.730667 0 0 1-65.826133 7.893334L705.792 444.885333l22.8864-20.343466z"  /><path fill="#ffffff" d="M623.3344 701.8752l-196.932267-95.914667a50.816 50.816 0 0 1-11.511466-83.626666l174.455466-155.1616-104.064-68.949334-152.234666 43.554134c-27.0592 7.6032-55.099733-7.9104-62.830934-34.858667a50.858667 50.858667 0 0 1 34.850134-62.839467l174.788266-49.954133a50.773333 50.773333 0 0 1 42.026667 6.4768l178.594133 118.357333a50.602667 50.602667 0 0 1 22.596267 38.7584 50.705067 50.705067 0 0 1-16.904533 41.531734l-167.082667 148.565333 179.2256 87.304533a50.747733 50.747733 0 0 1 26.538667 31.5392 50.722133 50.722133 0 0 1-5.572267 40.814934l-135.5264 219.451733a50.7904 50.7904 0 1 1-86.442667-53.367467l106.026667-171.682133z"  /></svg>