<?xml version="1.0" standalone="no"?><!DOCTYPE svg PUBLIC "-//W3C//DTD SVG 1.1//EN" "http://www.w3.org/Graphics/SVG/1.1/DTD/svg11.dtd"><svg class="icon" width="200px" height="108.02px" viewBox="0 0 1896 1024" version="1.1" xmlns="http://www.w3.org/2000/svg"><path fill="#707070" d="M450.054321 307.2h343.861728V404.54321H450.054321zM450.054321 447.525926h343.861728v99.871605H450.054321zM1101.116049 637.155556h353.975309v78.380246h-353.975309zM1158.004938 458.903704h237.669136V518.320988h-237.669136z"  /><path fill="#707070" d="M1768.612346 8.849383H127.683951c-59.417284 0-108.720988 48.039506-108.720988 108.720987v790.123457c0 59.417284 48.039506 108.720988 108.720988 108.720988h1643.45679c58.153086 0 108.720988-48.039506 107.45679-108.720988V116.306173c-1.264198-59.417284-49.303704-107.45679-109.985185-107.45679z m-973.432099 772.424691v-40.454321H450.054321v40.454321h-46.775309V260.424691h139.061729c15.17037-26.548148 25.283951-51.832099 32.869136-79.644444l46.775308 6.320988c-7.585185 26.548148-17.698765 50.567901-31.604938 73.323456h250.311111v520.849383h-45.511111z m705.422222 1.264198h-44.246913v-27.812346h-353.975309v27.812346h-45.511111V599.22963h444.997531v183.308642z m-386.844444-227.555556V422.241975h324.898765v132.740741h-324.898765z m424.77037-97.34321h-44.246914v-82.172839H1058.133333v85.965432h-44.246913v-125.155556h524.641975v121.362963z m17.698765-188.365432h-147.911111v37.925926h-46.775308v-37.925926h-174.45926v37.925926h-46.775308v-37.925926H994.923457v-40.454321h146.646913v-42.982716h46.775309v42.982716h174.459259v-42.982716h46.775309v42.982716h146.646913v40.454321z"  /><path fill="#707070" d="M450.054321 589.116049h343.861728v107.456791H450.054321z"  /></svg>