<?xml version="1.0" standalone="no"?><!DOCTYPE svg PUBLIC "-//W3C//DTD SVG 1.1//EN" "http://www.w3.org/Graphics/SVG/1.1/DTD/svg11.dtd"><svg class="icon" width="200px" height="200.00px" viewBox="0 0 1024 1024" version="1.1" xmlns="http://www.w3.org/2000/svg"><path fill="#515151" d="M924.576 512.704a18.144 18.144 0 0 1-18.144-18.176c0-217.472-176.928-394.368-394.4-394.368S117.632 277.056 117.632 494.528a18.144 18.144 0 1 1-36.288 0c0-237.504 193.216-430.72 430.72-430.72s430.72 193.216 430.72 430.72a18.144 18.144 0 0 1-18.144 18.176z"  /><path fill="#515151" d="M211.968 771.424H159.456a78.304 78.304 0 0 1-78.176-78.208v-187.52a78.304 78.304 0 0 1 78.176-78.208h52.512a78.304 78.304 0 0 1 78.176 78.208v187.52a78.304 78.304 0 0 1-78.176 78.208z m-52.512-307.584a41.92 41.92 0 0 0-41.856 41.856v187.52a41.92 41.92 0 0 0 41.856 41.856h52.512a41.92 41.92 0 0 0 41.856-41.856v-187.52a41.92 41.92 0 0 0-41.856-41.856H159.456zM864.544 771.424h-52.512a78.304 78.304 0 0 1-78.208-78.208v-187.52a78.336 78.336 0 0 1 78.208-78.208h52.512a78.304 78.304 0 0 1 78.176 78.208v187.52a78.304 78.304 0 0 1-78.176 78.208z m-52.512-307.584a41.92 41.92 0 0 0-41.888 41.856v187.52a41.92 41.92 0 0 0 41.888 41.856h52.512a41.92 41.92 0 0 0 41.856-41.856v-187.52a41.92 41.92 0 0 0-41.856-41.856h-52.512z"  /><path fill="#515151" d="M615.488 903.488a18.176 18.176 0 0 1-9.984-33.376l201.312-132.064c8.32-5.44 19.616-3.168 25.152 5.248s3.168 19.648-5.216 25.152l-201.312 132.064a18.336 18.336 0 0 1-9.952 2.976z"  /><path fill="#515151" d="M570.464 960.192h-90.016a63.264 63.264 0 0 1-63.168-63.168v-5.792c0-34.816 28.32-63.168 63.168-63.168h90.016c34.848 0 63.168 28.352 63.168 63.168v5.792a63.264 63.264 0 0 1-63.168 63.168z m-90.016-95.776a26.88 26.88 0 0 0-26.848 26.816v5.792a26.88 26.88 0 0 0 26.848 26.816h90.016a26.88 26.88 0 0 0 26.848-26.816v-5.792a26.88 26.88 0 0 0-26.848-26.816h-90.016z"  /></svg>