<?xml version="1.0" standalone="no"?><!DOCTYPE svg PUBLIC "-//W3C//DTD SVG 1.1//EN" "http://www.w3.org/Graphics/SVG/1.1/DTD/svg11.dtd"><svg class="icon" width="200px" height="200.00px" viewBox="0 0 1024 1024" version="1.1" xmlns="http://www.w3.org/2000/svg"><path fill="#707070" d="M881.417722 126.379747h-25.924051C631.898734 126.379747 534.683544 25.924051 534.683544 22.683544l-22.683544-22.683544-22.683544 22.683544S385.620253 132.860759 142.582278 126.379747h-32.405063v460.151899c0 119.898734 38.886076 298.126582 388.86076 430.987341l9.721519 3.240507 9.721519-3.240507c349.974684-136.101266 388.860759-311.088608 388.860759-430.987341V126.379747h-25.92405z m-29.164557 460.151899c0 64.810127 0 236.556962-340.253165 372.658227C174.987342 823.088608 174.987342 651.341772 174.987342 586.531646V187.949367c187.949367 0 294.886076-68.050633 340.253164-103.696202 42.126582 35.64557 152.303797 100.455696 340.253165 103.696202v398.582279z"  /><path fill="#707070" d="M479.594937 281.924051v162.025316h-162.025317c-19.443038 0-32.405063 12.962025-32.405063 32.405063s12.962025 32.405063 32.405063 32.405064h162.025317v162.025316c0 19.443038 12.962025 32.405063 32.405063 32.405063s32.405063-12.962025 32.405063-32.405063v-162.025316h162.025317c19.443038 0 32.405063-12.962025 32.405063-32.405064s-12.962025-32.405063-32.405063-32.405063h-162.025317v-162.025316c0-19.443038-12.962025-32.405063-32.405063-32.405064s-32.405063 16.202532-32.405063 32.405064z"  /></svg>