<?xml version="1.0" standalone="no"?><!DOCTYPE svg PUBLIC "-//W3C//DTD SVG 1.1//EN" "http://www.w3.org/Graphics/SVG/1.1/DTD/svg11.dtd"><svg class="icon" width="200px" height="200.00px" viewBox="0 0 1024 1024" version="1.1" xmlns="http://www.w3.org/2000/svg"><path fill="#ea986c" d="M785.747 971.617h-568.99c-77.67 0-140.892-63.221-140.892-140.893v-1.987l45.158-615.05c0.542-77.13 63.582-139.809 140.893-139.809h475.06c77.31 0 140.351 62.68 140.893 139.81l48.77 615.953v1.083c0 77.672-63.22 140.893-140.892 140.893z m-655.692-139.99c0.542 47.326 39.197 85.8 86.703 85.8h568.989c47.506 0 86.161-38.293 86.703-85.619l-48.77-615.953v-1.084c0-47.867-38.836-86.703-86.703-86.703H261.916c-47.868 0-86.703 38.836-86.703 86.703v1.987l-45.158 614.87z"  /><path fill="#ea986c" d="M679.174 252.162c0 99.347-80.742 180.09-180.09 180.09s-180.089-80.743-180.089-180.09h-54.19c0 129.151 105.128 234.279 234.28 234.279s234.279-105.128 234.279-234.28h-54.19z"  /></svg>