<?xml version="1.0" standalone="no"?><!DOCTYPE svg PUBLIC "-//W3C//DTD SVG 1.1//EN" "http://www.w3.org/Graphics/SVG/1.1/DTD/svg11.dtd"><svg class="icon" width="200px" height="200.00px" viewBox="0 0 1024 1024" version="1.1" xmlns="http://www.w3.org/2000/svg"><path fill="#ffffff" d="M739.8 891.7H284.2c-27.9 0-50.6-22.7-50.6-50.6V487.5l-9.2 5.4c-7.8 4.5-16.9 5.7-25.7 3.3-8.6-2.4-15.9-7.9-20.4-15.7L68.5 290.4c-9.3-16-3.8-36.7 12.4-46.1l166.4-96c6.8-7.7 17.1-13.4 28.4-15.3 2.5-0.5 5.4-0.7 8.5-0.7h110.1l3.3 12.7c13.5 52.2 60.5 88.6 114.5 88.6 53.9 0 101-36.4 114.4-88.6l3.3-12.7h110.1c3.1 0 6 0.3 8.9 0.8 10.7 1.8 20.6 7.1 28 15.2l166.3 96c7.8 4.6 13.4 11.8 15.8 20.5 2.4 8.8 1.2 17.9-3.4 25.7l-109.7 190c-4.6 7.8-11.8 13.4-20.5 15.8-8.7 2.4-17.9 1.2-25.8-3.4l-9-5.2v353.4c0 27.9-22.8 50.6-50.7 50.6zM233.6 453.8c5.8 0 11.5 1.5 16.8 4.5 10.6 6.1 16.9 17 16.9 29.2v353.6c0 9.3 7.6 16.9 16.9 16.9h455.7c9.3 0 16.9-7.6 16.9-16.9V487.5c0-12.2 6.3-23.2 16.9-29.2 10.5-6 23.2-6 33.8 0.1l9 5.2 109.8-190-173-100.8c-3.2-3.9-6.6-5.9-10.5-6.5-1.2-0.2-2-0.3-3-0.3h-84.5C634 226.3 576.9 267.3 512 267.3s-122-41-143.3-101.3h-84.6c-0.9 0-1.8 0.1-2.6 0.2-4.2 0.7-7.7 2.7-10 5.6l-2 2.5-2.9 1.8-168.8 97.4 109.6 190.1 9.2-5.2c5.4-3.1 11.2-4.6 17-4.6z m692.6-180.3l14.6 8.4-14.6-8.4z"  /><path fill="#ffffff" d="M537.3 385.4L436 520.4h84.4l-50.6 135.1 118.1-151.9h-84.3z"  /></svg>