<?xml version="1.0" standalone="no"?><!DOCTYPE svg PUBLIC "-//W3C//DTD SVG 1.1//EN" "http://www.w3.org/Graphics/SVG/1.1/DTD/svg11.dtd"><svg class="icon" width="200px" height="200.00px" viewBox="0 0 1024 1024" version="1.1" xmlns="http://www.w3.org/2000/svg"><path fill="#ffffff" d="M747.019478 286.388828H276.980522c-9.408306 0-16.93495-7.526645-16.934951-16.934951V190.800441c0-9.408306 7.526645-16.93495 16.934951-16.93495h470.038956c9.408306 0 16.93495 7.526645 16.934951 16.93495v78.653436c0 9.408306-7.526645 16.93495-16.934951 16.934951z m-453.104006-33.869901H730.084528V207.735391H293.915472v44.783536z"  /><path fill="#ffffff" d="M896.047042 760.943771c-7.150312 0-13.924293-4.515987-16.182286-11.666299L734.600515 287.894157H289.399485L144.135244 748.901139c-2.634326 9.031974-12.418964 13.924293-21.074605 10.913635-9.031974-2.634326-13.924293-12.418964-10.913634-21.074605L260.798236 265.690555c2.257993-7.150312 8.655641-11.666299 16.182286-11.666299h470.038956c7.526645 0 13.924293 4.892319 16.182286 11.666299l149.027563 473.049614c2.634326 9.031974-2.257993 18.440279-10.913634 21.074605-1.881661 0.752664-3.763322 1.128997-5.268651 1.128997zM458.372657 245.368614h-9.031973c-9.408306 0-16.93495-7.526645-16.934951-16.93495s7.526645-16.93495 16.934951-16.93495h9.031973c9.408306 0 16.93495 7.526645 16.93495 16.93495s-7.526645 16.93495-16.93495 16.93495zM680.785006 245.368614H511.811834c-9.408306 0-16.93495-7.526645-16.934951-16.93495s7.526645-16.93495 16.934951-16.93495h168.596839c9.408306 0 16.93495 7.526645 16.934951 16.93495s-7.150312 16.93495-16.558618 16.93495z"  /><path fill="#ffffff" d="M511.811834 850.510842c-193.058434 0-400.793826-33.869901-400.793826-108.007351 0-9.408306 7.526645-16.93495 16.93495-16.93495s16.93495 7.526645 16.934951 16.93495c0 6.77398 17.687615 28.60125 99.351709 47.794194 71.126792 16.93495 166.338846 26.343256 267.572216 26.343256s196.445424-9.408306 267.572216-26.343256c81.664094-19.192944 99.351709-41.020213 99.351709-47.794194 0-9.408306 7.526645-16.93495 16.93495-16.93495s16.93495 7.526645 16.934951 16.93495C912.981992 816.640941 705.246601 850.510842 511.811834 850.510842z"  /></svg>