<?xml version="1.0" standalone="no"?><!DOCTYPE svg PUBLIC "-//W3C//DTD SVG 1.1//EN" "http://www.w3.org/Graphics/SVG/1.1/DTD/svg11.dtd"><svg class="icon" width="200px" height="200.00px" viewBox="0 0 1024 1024" version="1.1" xmlns="http://www.w3.org/2000/svg"><path d="M756.8 968c-118.4 0-212.8-96-212.8-212.8v-152c0-33.6 27.2-60.8 60.8-60.8h153.6c118.4 0 212.8 96 212.8 212.8s-96 212.8-214.4 212.8z" fill="#E5E5E5" /><path d="M756.8 560c108.8 0 196.8 88 196.8 196.8 0 108.8-88 196.8-196.8 196.8C648 952 560 864 560 755.2v-152c0-24 19.2-44.8 44.8-44.8h152m0-30.4h-153.6c-41.6 0-76.8 33.6-76.8 76.8v152c0 126.4 102.4 228.8 228.8 228.8s228.8-102.4 228.8-228.8c1.6-128-100.8-228.8-227.2-228.8zM756.8 72c108.8 0 196.8 88 196.8 196.8 0 108.8-88 196.8-196.8 196.8h-153.6c-24 0-44.8-19.2-44.8-44.8v-152C560 160 648 72 756.8 72m0-32C630.4 40 528 142.4 528 268.8v152c0 41.6 33.6 76.8 76.8 76.8h153.6c126.4 0 228.8-102.4 228.8-228.8S883.2 40 756.8 40zM267.2 72C376 72 464 160 464 268.8v152c0 24-19.2 44.8-44.8 44.8h-153.6C158.4 464 70.4 376 70.4 268.8S158.4 72 267.2 72m0-32C140.8 40 38.4 142.4 38.4 268.8S140.8 496 267.2 496h153.6c41.6 0 76.8-33.6 76.8-76.8v-152C496 142.4 393.6 40 267.2 40z" fill="#333333" /><path d="M420.8 560c24 0 44.8 19.2 44.8 44.8v152c0 108.8-88 196.8-196.8 196.8S70.4 864 70.4 755.2C70.4 648 158.4 560 267.2 560h153.6m0-32h-153.6C140.8 528 38.4 628.8 38.4 755.2s102.4 228.8 228.8 228.8S496 881.6 496 755.2v-152c0-41.6-33.6-75.2-75.2-75.2z" fill="#333333" /></svg>