<?xml version="1.0" standalone="no"?><!DOCTYPE svg PUBLIC "-//W3C//DTD SVG 1.1//EN" "http://www.w3.org/Graphics/SVG/1.1/DTD/svg11.dtd"><svg class="icon" width="200px" height="199.80px" viewBox="0 0 1025 1024" version="1.1" xmlns="http://www.w3.org/2000/svg"><path fill="#707070" d="M533.175887 339.527337L49.530031 826.785185c-10.47478 10.47478-27.812346 10.835979-38.648324 0l-2.889595-2.889594c-10.47478-10.47478-10.835979-27.812346 0-38.648325L491.637968 297.989418c10.47478-10.47478 27.812346-10.835979 38.648324 0l2.889595 2.889594c10.47478 10.47478 10.835979 27.812346 0 38.648325z"  /><path fill="#707070" d="M976.006222 823.534392L488.748373 339.527337c-10.47478-10.47478-10.835979-27.812346 0-38.648325l2.889595-2.889594c10.47478-10.47478 27.812346-10.835979 38.648324 0l487.257849 483.645855c10.47478 10.47478 10.835979 27.812346 0 38.648325l-2.889595 2.889594c-10.47478 10.835979-27.812346 10.835979-38.648324 0.3612z"  /></svg>