<?xml version="1.0" standalone="no"?><!DOCTYPE svg PUBLIC "-//W3C//DTD SVG 1.1//EN" "http://www.w3.org/Graphics/SVG/1.1/DTD/svg11.dtd"><svg class="icon" width="200px" height="200.00px" viewBox="0 0 1024 1024" version="1.1" xmlns="http://www.w3.org/2000/svg"><path d="M525.2 547.6s19.7 19.5 23 36.1c3.3 16.6-6.6 22.5-6.6 22.5s-2 40-5.7 44c-3.7 4.1-7 3.1-7 3.1s-0.4 4.6-5.5 5.3c-5.2 0.7-6.6-6.8-6.6-6.8s-3.3 0.7-6.3-1.1c-2.9-1.8-2.9-7-2.9-7s-4.4 1.5-6.6-2.6c-2.2-4.1-7.9-23.6-8.7-47.5-0.8-24.5 7.2-45.7 7.2-45.7l25.7-0.3z" fill="#E5AD83" /><path d="M520.3 611.7c-0.6-2.5 3-8.8 5.2-10.8 2.2-1.9 6.9-6.9 6.9-6.9s-10.2-7.2-14.1-13c-3.9-5.8-3.9-19.6-3.9-19.6s-4.1 16.1 0.6 23.6c4.7 7.5 10.2 9.4 10.2 9.4s-0.3 4.4-3.7 7.7c-3.3 3.3-3.9 9.1-2.5 13 1.4 3.9 10.5-1.1 10.5-1.1s-0.8 28.2-1.1 34c-0.3 5.8-2.8 9.4-6.6 8.6-3.9-0.8-2.8-19.1-2.8-25.4 0-6.4-1.4-14.9-1.4-14.9s-0.5 30.7-0.5 33.2c0 2.5-4.1 0.8-6.4-1.1-2.2-1.9-4.1-32.9-4.1-32.9s1.1 24 0.6 26c-0.6 1.9-3 1.1-4.1 0-1.1-1.1-7.5-17.1-8-43.1-0.5-21.7 1.3-43.3 10.2-51.1l-10.5-0.2s-3.4 22.3-2.6 46.8c0.7 24 6.4 43.5 8.7 47.5 2.2 4.1 6.6 2.6 6.6 2.6s0 5.2 2.9 7c2.9 1.8 6.3 1.1 6.3 1.1s1.5 7.6 6.6 6.8c5.2-0.7 5.5-5.3 5.5-5.3s3.3 0.9 7-3.1c-2.9 1.2-4.8 0.5-5.3-1.2-0.6-1.7 1.1-35.1 1.1-35.1l9.4-5.3 0.6-2.5s-12.2 5.5-14.4 6.9c-2.2 1.1-6.3 0.9-6.9-1.6z" fill="#CC8D62" /><path d="M529.1 550.3s-18.2 2.5-26 1.9c-7.7-0.6-13.1-1.4-13.1-1.4v-17.7l38.3 1.9 0.8 15.3z" fill="#E8E8E8" /><path d="M482.5 269.7c-4.6 2.3-7.6 7-7.9 12.2-1.2 21-4.7 86.5-4.7 140.8 0 65.6 8.9 148.5 8.9 148.5s5.6 7.1 34.5 5.3 32-10.7 32-10.7L531.4 420l-8.8-139s0.3-11.3-25.1-13.4c-6-0.6-11 0.1-15 2.1z" fill="#051935" /><path d="M476.4 545.3c1.4 15.8 2.5 25.8 2.5 25.8s5.6 7.1 34.5 5.3c28.9-1.8 32-10.7 32-10.7L543 540c-24.8 4.8-49.2 7.7-66.6 5.3z" fill="#FFFFFF" /><path d="M517.3 864s13.2 9.5 32.9 14.1 37.4 8 48.3 18.2c4.4 4.1 2.3 11-1.3 12.8-3.5 1.7-5.6 4.1-35.2 6.8-43.4 3.9-105.9-4.6-105.9-4.6s-1.3-22.4 2.6-35.5c4-13.1 7.9-13.8 7.9-13.8s42.8 4.7 50.7 2z" fill="#161616" /><path d="M568.9 598.3s-1.2 65.8-9.2 147.8c-7.9 82-12.1 131.2-12.1 131.2s-35 12.6-52.1 12.6-45.6-7.1-45.6-7.1 10.4-135.9 11.7-169.2c1.3-33.3 6.6-118.8 6.6-118.8l100.7 3.5z" fill="#051935" /><path d="M495.4 880.6s13.2 9.5 32.9 14.2c19.7 4.6 43.9 8.7 49.8 17.3 5.9 8.6 0.8 12 0.8 12s-10.5 8.7-40.1 11.4c-43.4 3.9-90.4-4.1-96.9-6.7-9.7-4-9.9-27.5-6-40.7 3.9-13.2 8.7-9.4 8.7-9.4s42.9 4.5 50.8 1.9z" fill="#1E1E1E" /><path d="M547 605.7s-2.6 66.2-10.2 148.1c-7.5 82-15 137.8-15 137.8s-29.7 5.9-46 5.9-43.3-7.1-43.3-7.1 9.9-135.9 11.2-169.2c1.3-33.3 6.3-118.8 6.3-118.8l97 3.3z" fill="#002158" /><path d="M526.8 164.7s6.3-4 11.2-4.4c4.9-0.4 9.1 1.2 9.1 1.2s-3.1-6.5-10.2-5.9c-7 0.6-10.1 9.1-10.1 9.1z" fill="#9E7415" /><path d="M563.9 219.1l23.7-2.1s4.9 0.8 5.2 6.4c0.3 5.7-5.7 8.4-9.3 7.7-5.7-1-6.7-8-6.7-8l-13.1 0.8 0.2-4.8z" fill="#F2F2F2" /><path d="M437.3 174.6s-4.1 24.8 7.8 42.4c11.9 17.6 20.8 24.5 20 35.5-0.8 11-2.2 26.7-2.2 26.7l60.9-2.1 3-21.7s20.9-1.5 33.1-13.3c12.1-11.9 8.4-33.5 8.4-33.5s14.1 0.4 16.4-10.2c2.3-11.1-24-19-24-19l-8.9-39.6c-0.2 0.1-85.6 10.3-114.5 34.8z" fill="#E5AD83" /><path d="M509.2 152.3s-9 10-9.1 18.4c-0.2 13.9 3.4 28.4-1.2 28.3-4.6-0.1-13.2-7.4-15.2-11.1-2-3.6-12.5-4.1-15.1 5.8-2.6 9.9 0.1 20.1 7.8 24.7 6.6 4 16.5-4.2 16.5-4.2s-9.9 18.9-16.2 25.6C470.5 246.6 462 251 462 251s-2.5-15.4-11.2-25.7c-8.8-10.3-15.5-19.9-16.9-26.5-1.3-6.6 2.5-23.1 2.5-23.1s24.5-11.8 41.4-16.5c16.9-4.5 31.4-6.9 31.4-6.9z" fill="#745919" /><path d="M486 198s-7-7.6-9.2-6.9c-2.2 0.7-5.6 3.5-5.4 10.8 0.3 7.3 3.6 10.9 7.6 11.5 4 0.5 9.3-3.5 9.3-3.5s-7.2 1.7-8.8 1.8c-1.7 0.1-4.7-6.4-4.7-6.4s1.2-2.9 3.7-2.8c2.5 0.1 5.8 2.1 5.8 2.1s0.6-3.4-2.9-5.1c-3.5-1.7-6.1 1.3-6.1 1.3s0.6-7.1 2.3-6.9c1.7 0.1 8.4 4.1 8.4 4.1zM564.1 236.5c-4.4 4.8-12.5 9.8-24.4 12C521 252 501 238 501 238s14.3 10.7 14.8 17c0.3 3.5-1.5 13.9-3.2 22.5l11.1-0.4 3-21.7s20.9-1.5 33.1-13.3c1.8-1.7 3.2-3.6 4.3-5.6z" fill="#CC8D62" /><path d="M554.9 174.4c1.4 7.8-1.2 15-5.7 16.1-4.6 1.1-9.4-4.4-10.8-12.3-1.4-7.8 1.2-15 5.7-16.1 4.5-1 9.4 4.5 10.8 12.3z" fill="#B27247" /><path d="M554.1 174.6c1.3 7.3-0.9 13.9-4.8 14.9-4 0.9-8.2-4.2-9.5-11.5-1.3-7.3 0.9-13.9 4.8-14.9 3.9-0.9 8.2 4.2 9.5 11.5z" fill="#E2DDDC" /><path d="M538.5 176s-2.3-13.1 6.4-15c7.4-1.5 10 10.9 10 10.9s-4.6-9.6-9.8-8.5c-7.1 1.5-6.6 12.6-6.6 12.6z" fill="#634C1E" /><path d="M548.9 168.1c-3.9 0.9-6.3 6-5.3 11.3 0.9 5.2 4.8 8.8 8.6 8 2-2.7 2.9-7.6 1.9-12.8-0.4-2.4-1.2-4.5-2.1-6.3-1-0.4-2-0.4-3.1-0.2z" fill="#2B373D" /><path d="M553.7 177.7c0.4 2.1-0.7 4-2.3 4.4-1.6 0.4-3.2-1-3.6-3.1-0.4-2.1 0.7-4 2.3-4.4 1.6-0.3 3.2 1 3.6 3.1z"  /><path d="M549.8 176.6c0.2 1.4-0.4 2.7-1.5 3-1.1 0.3-2.2-0.7-2.4-2.1-0.2-1.4 0.4-2.7 1.5-3 1.1-0.2 2.2 0.7 2.4 2.1z" fill="#FFFFFF" /><path d="M567.6 205.5c-7.3-0.7-11-1-11-1s5.1 5.1 11.8 5.4c-0.1-0.8-0.2-1.3-0.2-1.3s14 1.1 16.4-9.5c0.1-0.5-0.3-4.4-0.4-4.8-0.3 3-6.4 12.1-16.6 11.2z" fill="#CC8D62" /><path d="M567.6 215.5s2.8 1.9 2.8 4.6c-0.2 6.4-4.1 9.3-4.1 9.3l1.3-13.9z" fill="#E5AD83" /><path d="M462.9 260.5s28.5 0.9 43 4.2c14.5 3.3 23.9 5.8 23.9 5.8l13.4 28.1s-62.2-19.9-72.8-17.2c-10.6 2.7-13.6 3.3-13.6 3.3l6.1-24.2z" fill="#E4E6E9" /><path d="M506.6 152.8c-1.6 0.3-3.8 0.7-6.6 1.3-14.9 7.3-52.6 26.7-65.8 33.4-0.3 2.2-0.5 4.4-0.6 6.5 7.8-3.5 53.8-23.9 57.1-26.3 2.6-1.8 7.7-2 10.3-1.9 1.5-4.4 4.4-8.7 6.3-11.2-0.2-0.7-0.4-1.3-0.7-1.8z" fill="#7F5B12" /><path d="M427.8 172.8s-33.8-6.8-22.2-25.1c11.5-18.3 128-84.3 142.2-74.8 16.6 11.1-0.5 55-0.5 55l-119.5 44.9zM549.9 138.7s44.1 3.8 44.7 6.7c0.6 2.9-14.6 12.5-52.3 15.3-24.7 1.9-47.4-3.1-47.4-3.1s48.3-18 55-18.9z" fill="#002158" /><path d="M425.5 173.2l7.8 17.7s35.2-19.3 63-31.1c27.3-11.5 58.1-20.8 58.1-20.8l-4.6-17.2s-28 5.3-70.9 24.2c-28 12.5-53.4 27.2-53.4 27.2z" fill="#E8E8E8" /><path d="MNaN NaNaNaN NaN NaN 1 0 NaN NaN NaN NaN NaN 1 0 NaN NaNZ" fill="#C2D2E0" /><path d="M557.4 90.5c-0.2-0.3-0.5-0.6-0.7-0.7l-0.5-3.7-0.9 3.6c-1.1 0.5-2.1 2.4-2.7 4.9l-2.1 0.6 1.4 4.3c0 1.8 0.1 3.5 0.4 4.9l-0.8 6.1 2.3-2.7c0.3 0.3 0.6 0.5 1 0.5s0.7-0.1 1-0.4l0.4 0.6c0.5-2.5 0.9-5.4 1.1-8.4 0.4-3.6 0.4-6.8 0.1-9.6z" fill="#00001D" /><path d="M481.9 154.1l-2.5-5.2c-1.4 0.6-2.7 1.2-4.1 1.9l2.5 5.3c1.4-0.8 2.8-1.4 4.1-2z m-7 3.3l-2.5-5.3c-1.2 0.6-2.3 1.1-3.5 1.7l2.5 5.3c1.1-0.6 2.3-1.2 3.5-1.7z m-6.5 3.1l-2.5-5.3c-1.3 0.7-2.7 1.3-4 2l2.6 5.1c1.4-0.6 2.6-1.2 3.9-1.8z m20.9-9.8l-2.3-5.2c-1.5 0.6-3 1.3-4.5 1.9l2.4 5.2c1.5-0.6 2.9-1.2 4.4-1.9z m-27.6 13.1l-2.6-5.1c-1.4 0.7-2.7 1.4-4.1 2.1l2.6 5c1.3-0.6 2.7-1.3 4.1-2z m-14 7.1l-2.5-4.8c-1.6 0.9-3.1 1.7-4.5 2.5l2.4 4.7c1.5-0.8 3-1.6 4.6-2.4z m-7.5 3.9l-2.4-4.7c-1.6 0.9-3 1.7-4.3 2.4l2.3 4.6c1.4-0.7 2.9-1.4 4.4-2.3z m14.4-7.5l-2.5-5c-1.4 0.7-2.7 1.4-4 2.1l2.5 4.9c1.3-0.6 2.7-1.3 4-2z m41.9-19.7l-2.2-5.1c-1.4 0.6-2.8 1.1-4.2 1.7l2.3 5.1c1.3-0.5 2.7-1.1 4.1-1.7z m41.8-20.1c-1.3 0.4-2.6 0.7-4 1.1l1.7 5.1c1.3-0.4 2.7-0.8 3.9-1.2l-1.6-5z m7.9-2c-1.5 0.4-3.1 0.8-4.6 1.2l1.7 5c1.6-0.5 3.1-0.9 4.6-1.3l-1.7-4.9z m-108.9 54.4l2.3 4.5c1.3-0.7 2.8-1.5 4.4-2.3l-2.3-4.5c-1.6 0.8-3.1 1.6-4.4 2.3z m93.9-50.3c-1.5 0.4-2.9 0.9-4.4 1.4l1.8 5.1c1.5-0.5 2.9-0.9 4.3-1.3l-1.7-5.2z m-29.8 16c0.9-0.3 1.7-0.7 2.6-1l-2.1-5c-1.5 0.6-3.1 1.2-4.6 1.8l2.2 5c0.6-0.3 1.3-0.5 1.9-0.8z m51.4-13.4c-0.3 0.1-0.6 0.2-0.9 0.2l1.2 3.8c0.3-0.1 0.6-0.2 0.8-0.3-0.1-0.7-0.6-2.1-1.1-3.7z m-41.7 9.7l-1.8-5.1c-1.4 0.5-2.9 1-4.3 1.6l2 5c1.4-0.4 2.8-1 4.1-1.5z m5.4-7.6c-1.3 0.5-2.7 0.9-4.1 1.4l1.8 5.1c1.4-0.5 2.7-1 4.1-1.4l-1.8-5.1z m7.2-2.4c-1.4 0.4-2.7 0.9-4.1 1.4l1.8 5.1c1.4-0.5 2.7-0.9 4.1-1.3l-1.8-5.2z m-93 42.3c-1.8 1-3.2 1.8-4 2.3 0.3 0.8 1.2 2.5 2.1 4.5 1.1-0.6 2.5-1.4 4.2-2.3l-2.3-4.5z m91.7-32.9l1.7 4.9c1.4-0.5 2.7-1 4.1-1.5l-1.7-4.7c-1.3 0.4-2.7 0.8-4.1 1.3z m7.3-2.3l1.7 4.6c1.4-0.5 2.7-1 4.1-1.4l-1.5-4.5c-1.5 0.4-2.9 0.8-4.3 1.3z m-14.4 4.8l1.8 5c1.4-0.5 2.7-1 4-1.5l-1.8-4.9c-1.3 0.4-2.7 0.9-4 1.4z m21.7-7.1l1.5 4.4c1.4-0.5 2.7-0.9 3.9-1.3l-1.4-4.2c-1.3 0.3-2.6 0.7-4 1.1z m-28.8 9.6l2 5c1.3-0.5 2.5-0.9 3.7-1.4l-1.8-5c-1.2 0.4-2.6 0.9-3.9 1.4z m-78.1 37.5c0.9 1.9 1.7 3.7 2.1 4.5 1-0.5 2.5-1.3 4.4-2.4l-2.3-4.5c-1.6 1-3.1 1.8-4.2 2.4z m119.3-59l1.6 4.8c0.3-0.1 0.6-0.2 0.9-0.2-0.7-2-1.3-3.8-1.5-4.7-0.4-0.1-0.7 0-1 0.1z m-5.3 9.8l1.4 4.1c1.7-0.6 3.2-1.1 4.5-1.5l-1.3-3.9c-1.4 0.4-3 0.9-4.6 1.3z m-41.6 13.9c-0.6 0.2-1.2 0.5-1.8 0.7l2.2 4.9c1.4-0.6 2.8-1.1 4.2-1.7l-2-5c-0.8 0.4-1.7 0.8-2.6 1.1zM459 168.6l2.3 4.6c1.4-0.7 2.7-1.4 4.1-2l-2.3-4.6c-1.4 0.6-2.8 1.3-4.1 2z m7-3.5l2.3 4.6c1.2-0.6 2.4-1.2 3.6-1.7l-2.2-4.7c-1.2 0.6-2.5 1.2-3.7 1.8z m-14 7l2.3 4.6c1.3-0.7 2.6-1.3 4-2l-2.3-4.6c-1.3 0.7-2.7 1.4-4 2z m20.7-10.3l2.2 4.7c1.2-0.6 2.3-1.1 3.5-1.7l-2.2-4.7c-1.2 0.6-2.4 1.2-3.5 1.7z m13.5-6.3l2.2 4.7 4.2-1.8-2.1-4.8c-1.4 0.6-2.8 1.2-4.3 1.9z m7.3-3.2l2.1 4.9c1.4-0.6 2.8-1.2 4.2-1.7l-2.2-4.9c-1.3 0.4-2.7 1-4.1 1.7z m-49 23.7l2.3 4.5c1.5-0.8 3-1.6 4.6-2.4l-2.3-4.5c-1.6 0.9-3.1 1.7-4.6 2.4z m34.7-17.3l2.2 4.7c1.4-0.6 2.7-1.3 4.1-1.9l-2.2-4.7c-1.4 0.7-2.8 1.3-4.1 1.9z" fill="#303030" /><path d="M542.4 143.1l43.8 8.6s4.6-1.9 6.6-3.4c1.9-1.5 4.2-3.3-1.5-4.6-5.8-1.3-36.8-4.6-36.8-4.6l-12.1 4z" fill="#536B89" /><path d="M488.1 273.7c-27.3 3.1-41.2 9.3-48.6 43.6-3 14-5.8 102.7-6.2 128.9-0.8 45.6-10 150.3-10 150.3s36.5 9.3 111.3 7c40.1-1.3 51 1.2 54.5-40.6 3.5-41.7 0-143.7-15.1-206.3 0 0-7.9-29-27.4-57.3-5.6-4.5-34.1-28.3-58.5-25.6z" fill="#174C99" /><path d="M527.6 531.2c-39.8 1.5-75.7-0.1-98.9-1.7-0.9 15.5-2.7 29.6-3.3 40.6 20.2 2.6 53.6 3.4 81.8 3.7 35.5 0.4 58-3.3 81-4.5 0.3-2 0.5-4.1 0.7-6.3 0.7-8.9 1.2-20.6 1.2-34-14.1 0.8-37.1 1.2-62.5 2.2z" fill="#051935" /><path d="M511.4 412.4c16 0 50.7-2.2 71.7-3.6-0.8-6.5-1.7-12.9-2.7-19.1-21.1 1.4-53.4 3.4-67.9 3.4-15.3 0-51.2-1.4-72.6-2.3 0.3-8.5 0.1-53.2 1.9-69.3 2.5-22.1 12.9-36.5 12.9-36.5s-7.2 6.2-13.4 22.7-7 102.2-7 102.2 59.5 2.5 77.1 2.5z m1 74.6c-18 0-64.6-2-82.4-2.8-0.4 6.5-0.8 12.9-1.1 19.2 16.5 0.8 63.1 2.8 82.5 2.8 17.9 0 59.2-2.7 78.5-4-0.2-6.2-0.4-12.7-0.7-19.2-19.6 1.4-60 4-76.8 4z" fill="#FFFFFF" /><path d="M522.9 569.6s19.7 19.5 23 36.1c3.3 16.6-6.6 22.5-6.6 22.5s-2 40-5.7 44c-3.7 4.1-7 3.1-7 3.1s-0.4 4.6-5.5 5.3c-5.2 0.7-6.6-6.8-6.6-6.8s-3.3 0.7-6.3-1.1c-2.9-1.8-2.9-7-2.9-7s-4.4 1.5-6.6-2.6c-2.2-4.1-7.9-23.6-8.7-47.5-0.8-24.5 7.2-45.7 7.2-45.7l25.7-0.3z" fill="#E5AD83" /><path d="M527.4 636s-0.8 28.2-1.1 34c-0.3 5.8-2.8 9.4-6.6 8.6-3.9-0.8-2.8-19.1-2.8-25.4 0-6.4-1.4-14.9-1.4-14.9s-0.5 30.7-0.5 33.2c0 2.5-4.1 0.8-6.4-1.1-2.2-1.9-4.1-32.9-4.1-32.9s1.1 24 0.6 26c-0.6 1.9-3 1.1-4.1 0-1.1-1.1-5.7-13.5-8.8-37.5-0.4-3.2-2.2-14.5-2.1-10.1 0.5 24 6.4 43.5 8.7 47.5 2.2 4.1 6.6 2.6 6.6 2.6s0 5.2 2.9 7c2.9 1.8 6.3 1.1 6.3 1.1s1.5 7.6 6.6 6.8c5.2-0.7 5.5-5.3 5.5-5.3s3.3 0.9 7-3.1c-2.9 1.2-4.8 0.5-5.3-1.2-0.6-1.7-0.3-21.9-0.3-21.9l-0.7-13.4z" fill="#CC8D62" /><path d="M526.9 572.4s-18.2 2.5-26 1.9c-7.7-0.6-13.1-1.4-13.1-1.4v-17.7l38.3 1.9 0.8 15.3z" fill="#E8E8E8" /><path d="M481.6 287.4c-4.6 2.3-7.6 7-7.9 12.2-1.2 21-4.7 86.5-4.7 140.8 0 65.6 8.9 148.5 8.9 148.5s5.6 7.1 34.5 5.3c28.9-1.8 32-10.7 32-10.7l-13.9-145.8-8.8-139s0.3-11.3-25.1-13.4c-6-0.6-11 0.1-15 2.1z" fill="#002158" /><path d="M475.5 563c1.4 15.8 2.5 25.8 2.5 25.8s5.6 7.1 34.5 5.3c28.9-1.8 32-10.7 32-10.7l-2.4-25.7c-24.8 4.8-49.2 7.7-66.6 5.3z" fill="#FFFFFF" /></svg>