<?xml version="1.0" standalone="no"?><!DOCTYPE svg PUBLIC "-//W3C//DTD SVG 1.1//EN" "http://www.w3.org/Graphics/SVG/1.1/DTD/svg11.dtd"><svg class="icon" width="200px" height="200.00px" viewBox="0 0 1024 1024" version="1.1" xmlns="http://www.w3.org/2000/svg"><path fill="#2c2c2c" d="M512 226.5088c-115.3024 0-208.6912 93.3888-208.6912 208.6912S396.6976 643.8912 512 643.8912c115.3024 0 208.6912-93.3888 208.6912-208.6912S627.3024 226.5088 512 226.5088zM932.2496 95.4368H789.6064L703.6928 0H317.0304l-83.1488 95.4368H91.7504C41.0624 95.4368 0 137.3184 0 188.928v554.8032c0 51.6096 41.0624 93.4912 91.7504 93.4912h840.6016c50.688 0 91.7504-41.8816 91.7504-93.4912V188.928c-0.1024-51.6096-41.1648-93.4912-91.8528-93.4912zM512 747.4176c-172.4416 0-312.2176-139.776-312.2176-312.2176 0-172.4416 139.776-312.2176 312.2176-312.2176 172.4416 0 312.2176 139.776 312.2176 312.2176 0 172.4416-139.776 312.2176-312.2176 312.2176z" /></svg>