<?xml version="1.0" standalone="no"?><!DOCTYPE svg PUBLIC "-//W3C//DTD SVG 1.1//EN" "http://www.w3.org/Graphics/SVG/1.1/DTD/svg11.dtd"><svg class="icon" width="200px" height="177.78px" viewBox="0 0 1152 1024" version="1.1" xmlns="http://www.w3.org/2000/svg"><path fill="#2c2c2c" d="M493.439692 463.35971a122.239924 122.239924 0 0 0 165.119896 0L1116.799302 35.839978A120.319925 120.319925 0 0 0 1031.039356 0H120.959924A120.319925 120.319925 0 0 0 35.199978 35.839978z m165.119896 138.239914a123.519923 123.519923 0 0 1-165.119896 0L0 140.799912v762.879523A120.959924 120.959924 0 0 0 120.959924 1023.99936H1030.399356a120.959924 120.959924 0 0 0 85.759946-35.199978 118.399926 118.399926 0 0 0 35.839978-85.119947V140.799912z" /></svg>