<?xml version="1.0" standalone="no"?><!DOCTYPE svg PUBLIC "-//W3C//DTD SVG 1.1//EN" "http://www.w3.org/Graphics/SVG/1.1/DTD/svg11.dtd"><svg class="icon" width="200px" height="200.00px" viewBox="0 0 1024 1024" version="1.1" xmlns="http://www.w3.org/2000/svg"><path fill="#2c2c2c" d="M853.504 219.648c0-24.576-24.064-49.152-49.152-49.152h-182.272V109.568h158.72c79.36 0 134.656 44.544 134.144 121.856v170.496h-60.928l-0.512-182.272z m-683.008 0v182.784H109.568V231.424c0-77.312 44.544-121.856 121.856-121.856h170.496v60.928H219.648c-25.088 0-49.152 24.576-49.152 49.152z m0 585.216c0 23.552 24.064 48.64 50.176 48.64h181.76v60.928H219.648c-77.312 0-109.568-44.544-109.568-121.856v-170.496h60.928l-0.512 182.784z m683.008-0.512v-182.272h60.928v170.496c0 77.312-44.544 121.856-121.856 121.856h-170.496v-60.928H803.84c25.6 0 49.664-24.576 49.664-49.152zM1024 512c0 19.968-16.384 36.352-36.352 36.352H36.864c-20.48 0.512-36.864-15.872-36.864-36.352 0-19.968 16.384-36.352 36.352-36.352h950.784c20.48 0 36.864 16.384 36.864 36.352z" /></svg>