<?xml version="1.0" standalone="no"?><!DOCTYPE svg PUBLIC "-//W3C//DTD SVG 1.1//EN" "http://www.w3.org/Graphics/SVG/1.1/DTD/svg11.dtd"><svg class="icon" width="200px" height="195.61px" viewBox="0 0 1047 1024" version="1.1" xmlns="http://www.w3.org/2000/svg"><path fill="#2c2c2c" d="M451.233 882.98C202.43 882.98 0 684.94 0 441.49 0 198.07 202.43 0 451.233 0s451.233 198.07 451.233 441.49c-0.03 243.449-202.43 441.49-451.233 441.49m0-774.319c-187.568 0-340.173 149.3-340.173 332.83S263.665 774.32 451.233 774.32s340.173-149.3 340.173-332.83S638.77 108.661 451.233 108.661M978.242 1024c-17.496 0-34.992-6.524-48.333-19.573L694.155 773.764c-26.683-26.098-26.683-68.462 0-94.589 26.712-26.097 69.983-26.097 96.666 0l235.754 230.634c26.682 26.098 26.682 68.462 0 94.589-13.37 13.078-30.837 19.602-48.333 19.602" /></svg>