<?xml version="1.0" standalone="no"?><!DOCTYPE svg PUBLIC "-//W3C//DTD SVG 1.1//EN" "http://www.w3.org/Graphics/SVG/1.1/DTD/svg11.dtd"><svg class="icon" width="200px" height="200.00px" viewBox="0 0 1024 1024" version="1.1" xmlns="http://www.w3.org/2000/svg"><path fill="#2c2c2c" d="M866.4 608.8c-8 29.6-20 57.6-35.2 83.2 2.4 2.4 80 100.8 32 148.8l-24 24c-36 36-125.6-20-147.2-34.4-27.2 15.2-56.8 27.2-88 35.2h6.4s-16.8 128-85.6 128h-24c-52.8 0-81.6-109.6-86.4-130.4-31.2-8.8-60-21.6-87.2-37.6l4.8 4.8s-101.6 80-150.4 31.2L160 844c-36.8-36.8 22.4-135.2 34.4-153.6-14.4-25.6-25.6-52.8-33.6-81.6-20-4-131.2-32.8-131.2-85.6V500c0-60.8 105.6-80.8 130.4-84.8 8-28.8 19.2-56 33.6-81.6-11.2-17.6-73.6-116-36-152.8l22.4-19.2c42.4-42.4 130.4 17.6 151.2 32.8 25.6-15.2 53.6-26.4 83.2-35.2 6.4-25.6 35.2-128.8 86.4-128.8h24c59.2 0 80 99.2 84.8 128 29.6 8 58.4 20 84 35.2 22.4-14.4 113.6-70.4 149.6-34.4l21.6 22.4c41.6 41.6-16 127.2-32.8 149.6 15.2 26.4 26.4 53.6 35.2 83.2 7.2 0.8 128 19.2 128 85.6v23.2c-0.8 49.6-102.4 79.2-128.8 85.6M512 240.8c-149.6 0-271.2 121.6-271.2 271.2S362.4 783.2 512 783.2 783.2 661.6 783.2 512 661.6 240.8 512 240.8m0 452c-100 0-180.8-80.8-180.8-180.8 0-100 80.8-180.8 180.8-180.8 100 0 180.8 80.8 180.8 180.8 0 100-80.8 180.8-180.8 180.8m0-271.2c-49.6 0-90.4 40.8-90.4 90.4 0 49.6 40.8 90.4 90.4 90.4 49.6 0 90.4-40.8 90.4-90.4 0-49.6-40-90.4-90.4-90.4" /></svg>