<?xml version="1.0" standalone="no"?><!DOCTYPE svg PUBLIC "-//W3C//DTD SVG 1.1//EN" "http://www.w3.org/Graphics/SVG/1.1/DTD/svg11.dtd"><svg class="icon" width="200px" height="200.00px" viewBox="0 0 1024 1024" version="1.1" xmlns="http://www.w3.org/2000/svg"><path fill="#2c2c2c" d="M668.24 410.721h-46.188c0 59.519-48.244 107.766-107.762 107.766-59.518 0-107.769-48.248-107.769-107.766h-46.192c0 85.025 68.935 153.95 153.962 153.95s153.95-68.925 153.95-153.95v0zM960.749 571.010c0-78.137-43.672-146.103-108.047-181.172-2.965-184.497-153.212-333.203-338.412-333.203-185.219 0-335.489 148.733-338.421 333.259-64.379 35.087-108.042 103.020-108.042 181.116 0 95.37 65.176 175.418 153.625 199.138l-46.27 148.615h46.595l15.399-46.184 41.659-138.877c-1.082 0.021-2.084 0.317-3.174 0.317-89.274 0-161.646-72.37-161.646-161.653 0-53.036 25.895-99.684 65.35-129.158 17.508 123.367 101.337 225.119 214.298 268.243l-49.836 161.127h0.025l-14.309 46.184h46.185l15.403-46.184 66.217-190.382c-134.277-26.507-235.565-144.822-235.565-286.87 0-161.549 130.963-292.508 292.508-292.508 161.55 0 292.505 130.959 292.505 292.508 0 142.048-101.284 260.363-235.558 286.87l66.218 190.382 15.386 46.184h46.188l-14.432-46.184h0.144l-49.852-161.135c112.99-43.128 196.847-144.901 214.331-268.305 39.471 29.473 65.379 76.15 65.379 129.231 0 89.278-72.305 161.653-161.509 161.653-1.098 0-2.11-0.3-3.2-0.325l41.626 138.881h-0.115l15.391 46.184h46.656l-46.231-148.608c88.39-23.711 153.531-103.767 153.531-199.146v0zM960.749 571.010z" /></svg>