<?xml version="1.0" standalone="no"?><!DOCTYPE svg PUBLIC "-//W3C//DTD SVG 1.1//EN" "http://www.w3.org/Graphics/SVG/1.1/DTD/svg11.dtd"><svg class="icon" width="200px" height="200.00px" viewBox="0 0 1024 1024" version="1.1" xmlns="http://www.w3.org/2000/svg"><path fill="#2c2c2c" d="M380.8 619.4c-15.4-10-29.9-20.7-45.5-29.5C262.2 549 188.8 508.5 115.5 468c-22.6-12.5-43.5-27.4-39-56.6 4.4-28.7 28.8-38.2 53.5-44.1 218.8-52.6 437.6-104.9 656.5-157.2 22.9-5.5 46.9-9.6 64 11.4 17.9 21.9 11.7 46.5 1.5 70C762 497.8 672 704 582.1 910.3c-10.3 23.7-22.2 44.6-53.3 41.9-30.1-2.7-39.7-24-48-48.8C454.1 824 426.5 745 399 665.9c-5.3-15.4-11.8-30.3-18.2-46.5z m132.3-93c0 0.1 0.1 0.1 0.1 0.2-17.6 14.8-35.4 29.4-52.9 44.4-20.9 17.8-45.8 31.6-32.5 68.2 29.2 80.2 55.2 161.5 83 242.2 4.1 11.7 6 28.1 23.3 27.6 14.2-0.4 15.9-14.6 20.4-24.8C641.2 685.5 728 486.9 814.3 288c4.9-11.2 15-24.9 3.9-36.7-10.1-10.7-24.6-5.9-37.4-2.9C571.6 298.1 362.3 348.1 153 398c-12.6 3-28.1 3.4-30.7 19.7-2.7 17 13.8 21.1 24.3 27.1C213.7 482.9 282 519 348.3 558.4c35.7 21.2 62.3 16.1 91.9-11.6 40.8-38.1 85.2-72.3 128.4-107.8 8.9-7.3 20.3-14.7 29.3-1.1 6.8 10.4-2 18.7-9.3 25-24.9 21.5-50.3 42.4-75.5 63.5z" /></svg>