<?xml version="1.0" standalone="no"?><!DOCTYPE svg PUBLIC "-//W3C//DTD SVG 1.1//EN" "http://www.w3.org/Graphics/SVG/1.1/DTD/svg11.dtd"><svg class="icon" width="200px" height="200.00px" viewBox="0 0 1024 1024" version="1.1" xmlns="http://www.w3.org/2000/svg"><path fill="#2c2c2c" d="M511.011998 460.486766c98.901521 0 179.078585-80.177064 179.078585-179.078585s-80.177064-179.078585-179.078585-179.078585c-98.902544 0-179.078585 80.177064-179.078585 179.078585S412.109454 460.486766 511.011998 460.486766zM511.011998 153.494906c70.643943 0 127.913275 57.269331 127.913275 127.913275s-57.269331 127.913275-127.913275 127.913275-127.913275-57.269331-127.913275-127.913275S440.368054 153.494906 511.011998 153.494906zM897.816624 872.419699 805.969776 579.48909c-1.01819-3.248997-2.629897-6.145977-4.670369-8.619308-1.108241-1.489934-2.391467-2.883677-3.858888-4.145413l-116.403127-100.05581c-9.821693-8.441253-24.205285-8.114818-33.629935 0.248663l-0.021489 0.00307c-38.174438 28.110221-85.330434 44.731784-136.37397 44.731784-50.879807 0-97.905844-16.503882-136.01479-44.450375-1.218758-1.118474-2.52245-2.100848-3.894703-2.942005-0.025583-0.020466-0.053212-0.039909-0.078795-0.060375l-0.01228 0.005117c-9.210779-5.598508-21.342074-4.942569-29.959336 2.464121l-116.403127 100.05581c-1.467421 1.260713-2.749624 2.65548-3.857864 4.145413-2.040473 2.473331-3.65218 5.370311-4.670369 8.619308l-91.846848 292.930609c-4.227278 13.482059 3.275603 27.838022 16.756639 32.0653 2.330068 0.730641 4.686742 1.103124 7.012717 1.162476l0 0.016373 0.578168 0c0.008186 0 0.017396 0 0.025583 0l724.796524 0c0.008186 0 0.017396 0 0.024559 0l1.122567 0 0-0.029676c2.149966-0.101307 4.320399-0.474814 6.469342-1.14815C894.541021 900.257721 902.043902 885.901759 897.816624 872.419699zM183.514105 854.497515l79.382978-253.18028 96.411817-82.872452c43.774993 28.079522 95.832625 44.372603 151.702074 44.372603 55.883775 0 107.947548-16.310477 151.730727-44.405349l96.449679 82.905198 79.382978 253.18028L183.514105 854.497515z" /></svg>