<?xml version="1.0" standalone="no"?><!DOCTYPE svg PUBLIC "-//W3C//DTD SVG 1.1//EN" "http://www.w3.org/Graphics/SVG/1.1/DTD/svg11.dtd"><svg class="icon" width="200px" height="200.00px" viewBox="0 0 1024 1024" version="1.1" xmlns="http://www.w3.org/2000/svg"><path fill="#2c2c2c" d="M590.08 357.12c-90.88 0-163.84-72.96-163.84-162.56S499.2 30.72 590.08 30.72c90.88 0 163.84 72.96 163.84 162.56s-74.24 163.84-163.84 163.84z m0-288c-69.12 0-125.44 56.32-125.44 124.16s56.32 124.16 125.44 124.16 125.44-56.32 125.44-124.16-56.32-124.16-125.44-124.16zM867.84 628.48c-7.68 0-16.64-1.28-24.32-3.84L729.6 582.4c-38.4-14.08-57.6-56.32-43.52-93.44 14.08-38.4 56.32-57.6 93.44-43.52l113.92 40.96c38.4 14.08 57.6 56.32 43.52 93.44-11.52 30.72-39.68 48.64-69.12 48.64z m-113.92-148.48c-14.08 0-28.16 8.96-33.28 23.04-6.4 17.92 2.56 38.4 20.48 44.8l113.92 40.96c17.92 6.4 38.4-2.56 44.8-20.48 2.56-8.96 2.56-17.92-1.28-26.88-3.84-8.96-11.52-15.36-19.2-17.92l-113.92-40.96c-3.84-2.56-7.68-2.56-11.52-2.56zM167.68 532.48c-10.24 0-20.48-2.56-30.72-6.4-17.92-7.68-30.72-23.04-38.4-40.96-6.4-17.92-6.4-38.4 2.56-56.32l51.2-110.08c7.68-17.92 23.04-30.72 40.96-38.4 17.92-6.4 38.4-6.4 56.32 2.56 17.92 7.68 30.72 23.04 38.4 40.96 6.4 17.92 6.4 38.4-2.56 56.32l-51.2 110.08c-12.8 25.6-38.4 42.24-66.56 42.24zM153.6 490.24c17.92 7.68 38.4 0 46.08-16.64l51.2-110.08c3.84-8.96 3.84-17.92 1.28-26.88-2.56-8.96-8.96-15.36-17.92-19.2-8.96-3.84-17.92-3.84-26.88-1.28-8.96 2.56-15.36 8.96-19.2 17.92l-51.2 110.08c-8.96 16.64-1.28 38.4 16.64 46.08zM550.4 988.16c-11.52 0-21.76-2.56-32-6.4-20.48-8.96-35.84-24.32-44.8-44.8-7.68-20.48-7.68-43.52 0-62.72l42.24-99.84-262.4-111.36c-33.28-14.08-48.64-52.48-34.56-87.04l19.2-44.8c1.28-3.84 3.84-7.68 6.4-11.52l94.72-224c6.4-16.64 19.2-28.16 35.84-35.84 16.64-6.4 34.56-6.4 49.92 0l235.52 99.84c16.64 6.4 28.16 19.2 35.84 35.84 6.4 16.64 6.4 34.56 0 49.92l-74.24 175.36 55.04 23.04c33.28 14.08 48.64 52.48 34.56 87.04l-1.28 1.28c-1.28 5.12-2.56 10.24-5.12 14.08l-80.64 189.44c-8.96 20.48-24.32 35.84-44.8 44.8-8.96 6.4-19.2 7.68-29.44 7.68zM400.64 294.4c-3.84 0-6.4 1.28-10.24 2.56-6.4 2.56-12.8 7.68-15.36 15.36l-98.56 230.4c-1.28 1.28-2.56 3.84-3.84 6.4l-19.2 44.8c-6.4 14.08 0 30.72 14.08 35.84l296.96 126.72-57.6 135.68c-5.12 11.52-5.12 23.04 0 33.28 3.84 11.52 12.8 19.2 24.32 24.32 10.24 5.12 23.04 5.12 33.28 0 11.52-3.84 19.2-12.8 24.32-24.32l80.64-189.44c1.28-2.56 2.56-6.4 2.56-8.96l1.28-3.84 1.28-3.84c6.4-14.08 0-30.72-14.08-35.84l-90.88-38.4 89.6-211.2c2.56-6.4 2.56-14.08 0-20.48s-7.68-11.52-15.36-15.36l-235.52-99.84c0-3.84-3.84-3.84-7.68-3.84zM153.6 901.12c-23.04 0-46.08-11.52-60.16-30.72-23.04-33.28-15.36-79.36 17.92-102.4l111.36-78.08c16.64-11.52 35.84-15.36 55.04-12.8 19.2 3.84 35.84 14.08 47.36 30.72 11.52 16.64 15.36 35.84 12.8 55.04s-14.08 35.84-30.72 47.36l-111.36 78.08c-12.8 8.96-28.16 12.8-42.24 12.8z m111.36-186.88c-7.68 0-14.08 2.56-20.48 6.4l-111.36 78.08c-15.36 11.52-19.2 33.28-8.96 48.64 11.52 15.36 33.28 19.2 48.64 8.96l111.36-78.08c7.68-5.12 12.8-12.8 14.08-23.04 1.28-8.96 0-17.92-6.4-25.6-5.12-7.68-12.8-12.8-23.04-14.08 0 0-1.28-1.28-3.84-1.28z" /></svg>